<?xml version="1.0" encoding="UTF-8"?>
<svg version="1.1" xmlns="http://www.w3.org/2000/svg" width="612" height="296">
<path d="M0 0 C2.86473869 0.01614902 5.72807558 -0.00000357 8.59277344 -0.01904297 C26.1630099 -0.04171412 42.55869719 2.55455106 59.48339844 7.20361328 C60.12605652 7.37752594 60.7687146 7.5514386 61.43084717 7.73062134 C71.01646623 10.33003331 80.16880138 13.32606202 89.23339844 17.39111328 C91.27434159 18.20542898 93.31599448 19.01796841 95.35839844 19.82861328 C113.18784121 27.29999882 113.18784121 27.29999882 115.23339844 31.39111328 C115.4035635 34.1098101 115.51650867 36.80613583 115.58496094 39.52783203 C115.60865753 40.35068192 115.63235413 41.1735318 115.6567688 42.02131653 C115.73087124 44.70695478 115.7959487 47.39267984 115.85839844 50.07861328 C115.88019165 50.9915918 115.90198486 51.90457031 115.92443848 52.84521484 C116.77046341 89.58502049 114.65856302 127.12248236 100.23339844 161.39111328 C99.88760742 162.22126953 99.54181641 163.05142578 99.18554688 163.90673828 C92.77882359 179.1306352 85.07495018 193.09674822 75.23339844 206.39111328 C74.49605469 207.39529297 73.75871094 208.39947266 72.99902344 209.43408203 C65.24736237 219.83870121 56.92359642 230.27359333 46.26855469 237.82861328 C44.10227772 239.41382956 44.10227772 239.41382956 41.97167969 241.71923828 C38.67270869 244.9382057 35.13218069 247.51047311 31.35839844 250.14111328 C30.61823486 250.66044434 29.87807129 251.17977539 29.11547852 251.71484375 C6.52037648 267.39111328 6.52037648 267.39111328 0.42089844 267.39111328 C-3.26615932 266.23438928 -4.93511721 264.59088013 -7.70263672 262.00048828 C-9.921189 260.27057385 -11.79869634 259.50585773 -14.45019531 258.59814453 C-19.90817132 256.50241338 -24.0640487 253.55610835 -28.57910156 249.89111328 C-29.35535889 249.27308838 -30.13161621 248.65506348 -30.93139648 248.01831055 C-37.84725064 242.45237861 -44.4060629 236.57915604 -50.76660156 230.39111328 C-51.3221875 229.85599121 -51.87777344 229.32086914 -52.45019531 228.76953125 C-68.57283961 213.19984613 -81.41400031 195.57378417 -90.89331055 175.22460938 C-91.81075863 173.29840443 -92.78904144 171.41040215 -93.77050781 169.51611328 C-95.96450517 165.14185086 -97.61595863 160.63968783 -99.20410156 156.01611328 C-99.50413086 155.14543213 -99.80416016 154.27475098 -100.11328125 153.37768555 C-106.85662073 133.52729481 -110.20141696 114.13887583 -112.51660156 93.32861328 C-112.65662598 92.08418457 -112.79665039 90.83975586 -112.94091797 89.55761719 C-113.12533447 87.81810791 -113.12533447 87.81810791 -113.31347656 86.04345703 C-113.48121582 84.48099243 -113.48121582 84.48099243 -113.65234375 82.88696289 C-113.76660156 80.39111328 -113.76660156 80.39111328 -112.76660156 78.39111328 C-108.51837783 78.86313814 -106.56670448 81.35766846 -103.76660156 84.39111328 C-102.28160156 83.89611328 -102.28160156 83.89611328 -100.76660156 83.39111328 C-100.27160156 82.40111328 -100.27160156 82.40111328 -99.76660156 81.39111328 C-100.34410156 81.28798828 -100.92160156 81.18486328 -101.51660156 81.07861328 C-104.23667576 80.2474795 -105.72117229 79.3807971 -107.76660156 77.39111328 C-108.05175781 74.75439453 -108.05175781 74.75439453 -107.82910156 71.70361328 C-107.61641628 66.02285811 -108.5826115 62.57808967 -110.76660156 57.39111328 C-110.80282489 55.7248403 -110.81559998 54.05705954 -110.76660156 52.39111328 C-111.42660156 51.73111328 -112.08660156 51.07111328 -112.76660156 50.39111328 C-113.00952148 48.35986328 -113.00952148 48.35986328 -112.99707031 45.89111328 C-112.99513672 45.00423828 -112.99320313 44.11736328 -112.99121094 43.20361328 C-112.97896484 42.27548828 -112.96671875 41.34736328 -112.95410156 40.39111328 C-112.95345703 39.46298828 -112.9528125 38.53486328 -112.95214844 37.57861328 C-112.90697343 30.67185702 -112.90697343 30.67185702 -111.76660156 28.39111328 C-109.75146484 27.26538086 -109.75146484 27.26538086 -107.08691406 26.03564453 C-106.10561523 25.58157227 -105.12431641 25.1275 -104.11328125 24.65966797 C-103.05012695 24.17916992 -101.98697266 23.69867188 -100.89160156 23.20361328 C-99.25046387 22.46159668 -99.25046387 22.46159668 -97.57617188 21.70458984 C-83.57807679 15.44647384 -69.75676162 10.45713567 -54.89160156 6.64111328 C-53.80588867 6.35913086 -52.72017578 6.07714844 -51.6015625 5.78662109 C-34.53498406 1.5938632 -17.55308769 -0.11718083 0 0 Z M-7.71972656 48.35595703 C-21.67370204 48.76159585 -37.78817828 51.91265716 -50.9440918 56.4987793 C-56.17699565 58.15315726 -60.90623145 56.60037242 -65.76660156 54.39111328 C-66.09660156 55.71111328 -66.42660156 57.03111328 -66.76660156 58.39111328 C-57.51190555 65.83646423 -47.35977635 71.12251462 -36.76660156 76.39111328 C-36.10611816 76.71998535 -35.44563477 77.04885742 -34.76513672 77.38769531 C-19.40295971 84.95752233 -3.40823095 90.95831854 12.79589844 96.45361328 C13.98022461 96.86015137 15.16455078 97.26668945 16.38476562 97.68554688 C18.04427246 98.23782959 18.04427246 98.23782959 19.73730469 98.80126953 C20.72545166 99.13263916 21.71359863 99.46400879 22.73168945 99.80541992 C25.34031798 100.6466722 25.34031798 100.6466722 28.23339844 99.39111328 C27.811875 98.92060547 27.39035156 98.45009766 26.95605469 97.96533203 C26.40820312 97.34271484 25.86035156 96.72009766 25.29589844 96.07861328 C24.750625 95.46373047 24.20535156 94.84884766 23.64355469 94.21533203 C22.23339844 92.39111328 22.23339844 92.39111328 21.23339844 89.39111328 C22.71839844 89.88611328 22.71839844 89.88611328 24.23339844 90.39111328 C25.7051362 90.48331435 27.18065196 90.52178688 28.65527344 90.52392578 C29.94691406 90.52585937 29.94691406 90.52585937 31.26464844 90.52783203 C32.16183594 90.52396484 33.05902344 90.52009766 33.98339844 90.51611328 C34.86511719 90.51998047 35.74683594 90.52384766 36.65527344 90.52783203 C41.61827707 90.52044661 46.32177261 90.18331099 51.23339844 89.39111328 C56.81545733 88.9332788 60.61138192 88.9246009 65.23339844 92.39111328 C66.33748047 93.06400391 66.33748047 93.06400391 67.46386719 93.75048828 C68.2746875 94.25064453 69.08550781 94.75080078 69.92089844 95.26611328 C70.68789062 95.73791016 71.45488281 96.20970703 72.24511719 96.69580078 C74.63548145 98.73395027 75.33705929 100.40970712 76.23339844 103.39111328 C76.23339844 104.05111328 76.23339844 104.71111328 76.23339844 105.39111328 C75.24339844 105.06111328 74.25339844 104.73111328 73.23339844 104.39111328 C66.16677796 103.36677747 61.37884141 104.67411808 55.47558594 108.63720703 C49.30663513 113.4627452 45.45908898 119.89264599 41.26074219 126.42626953 C37.32033861 132.18882505 33.33878485 136.35088665 27.60839844 140.20361328 C26.35914 141.07333979 25.11176531 141.94577783 23.86621094 142.82080078 C23.25165039 143.25231445 22.63708984 143.68382812 22.00390625 144.12841797 C-0.30432033 160.03825634 -12.74153517 180.75826139 -17.76660156 207.39111328 C-17.76660156 208.38111328 -17.76660156 209.37111328 -17.76660156 210.39111328 C-16.11660156 211.05111328 -14.46660156 211.71111328 -12.76660156 212.39111328 C-12.10660156 208.76111328 -11.44660156 205.13111328 -10.76660156 201.39111328 C-8.5530599 203.18147786 -6.33951823 204.97184245 -4.12597656 206.76220703 C-1.19240067 208.85245018 -1.19240067 208.85245018 2.23339844 209.39111328 C20.14386046 199.27822239 34.369825 180.60227781 43.23339844 162.39111328 C46.66825836 162.96569205 48.18660647 164.02759621 50.51074219 166.58642578 C51.10693359 167.21935547 51.703125 167.85228516 52.31738281 168.50439453 C53.55517194 169.84783268 54.78694664 171.19683675 56.01269531 172.55126953 C59.35883519 176.35060306 59.35883519 176.35060306 64.02246094 177.52392578 C71.12769017 173.8834373 74.24008602 162.26887693 77.23339844 155.39111328 C77.7296875 154.25802734 78.22597656 153.12494141 78.73730469 151.95751953 C86.56497557 133.29782367 90.68879851 114.55510436 92.23339844 94.39111328 C92.31412598 93.40965332 92.39485352 92.42819336 92.47802734 91.41699219 C92.68142613 88.65778247 92.81667246 85.9056689 92.92089844 83.14111328 C93.00476807 81.91799438 93.00476807 81.91799438 93.09033203 80.67016602 C93.12082719 78.32078931 93.04324488 76.59934063 92.23339844 74.39111328 C89.83936369 72.12746091 87.1963334 70.78823595 84.23339844 69.39111328 C83.29496094 68.86646484 82.35652344 68.34181641 81.38964844 67.80126953 C53.18475813 53.49143548 23.65143416 48.63494957 -7.71972656 48.35595703 Z M-89.76660156 91.39111328 C-90.09660156 92.38111328 -90.42660156 93.37111328 -90.76660156 94.39111328 C-90.43660156 95.05111328 -90.10660156 95.71111328 -89.76660156 96.39111328 C-89.51378705 97.96116734 -89.3042316 99.53832028 -89.11816406 101.11767578 C-88.99957031 102.06771484 -88.88097656 103.01775391 -88.75878906 103.99658203 C-88.51691907 105.98557672 -88.27981885 107.97515813 -88.04785156 109.96533203 C-87.30248032 115.85693667 -86.27082494 120.98298998 -83.76660156 126.39111328 C-81.2361555 127.9748873 -81.2361555 127.9748873 -78.76660156 128.39111328 C-79.42660156 129.38111328 -80.08660156 130.37111328 -80.76660156 131.39111328 C-83.25215275 143.12578282 -75.05301123 159.65334144 -68.76660156 169.39111328 C-67.28160156 169.88611328 -67.28160156 169.88611328 -65.76660156 170.39111328 C-64.77660156 169.89611328 -64.77660156 169.89611328 -63.76660156 169.39111328 C-64.35693409 165.8046845 -65.33862837 162.95024387 -66.95410156 159.70361328 C-72.77336016 147.19052543 -79.76660156 130.37030911 -79.76660156 116.39111328 C-59.48296183 124.152506 -59.48296183 124.152506 -55.05175781 133.14892578 C-53.28257536 137.39536393 -51.87139547 141.7431953 -50.51904297 146.13769531 C-49.2918478 149.8129099 -47.4307032 153.08665841 -45.48144531 156.41845703 C-44.49632432 159.13696032 -44.90833877 160.64885899 -45.76660156 163.39111328 C-47.07128906 165.89111328 -47.07128906 165.89111328 -48.64160156 168.39111328 C-49.15464844 169.21611328 -49.66769531 170.04111328 -50.19628906 170.89111328 C-50.71449219 171.71611328 -51.23269531 172.54111328 -51.76660156 173.39111328 C-52.76999945 175.0557365 -53.77098866 176.72182219 -54.76660156 178.39111328 C-58.50299372 177.14564923 -58.95416669 175.75706375 -60.76660156 172.39111328 C-62.74660156 173.38111328 -62.74660156 173.38111328 -64.76660156 174.39111328 C-63.11639409 179.19171683 -60.51979149 183.16863995 -57.76660156 187.39111328 C-56.75919922 188.96699219 -56.75919922 188.96699219 -55.73144531 190.57470703 C-55.02117187 191.66912109 -54.31089844 192.76353516 -53.57910156 193.89111328 C-52.90492187 194.93267578 -52.23074219 195.97423828 -51.53613281 197.04736328 C-50.66021484 198.20751953 -50.66021484 198.20751953 -49.76660156 199.39111328 C-49.10660156 199.39111328 -48.44660156 199.39111328 -47.76660156 199.39111328 C-47.43660156 200.71111328 -47.10660156 202.03111328 -46.76660156 203.39111328 C-44.29160156 202.89611328 -44.29160156 202.89611328 -41.76660156 202.39111328 C-42.83462805 199.08994052 -44.11877144 196.89510614 -46.45410156 194.39111328 C-48.76660156 191.39111328 -48.76660156 191.39111328 -48.66894531 189.05908203 C-47.53398288 185.70332731 -45.83282203 183.48534909 -43.64160156 180.70361328 C-40.72873603 176.95428885 -37.88559333 173.18616937 -35.20410156 169.26611328 C-31.62601243 164.10969846 -27.76119461 159.22963444 -23.76660156 154.39111328 C-23.26 153.75947266 -22.75339844 153.12783203 -22.23144531 152.47705078 C-16.57538618 145.67820732 -9.88489796 139.84862415 -3.37304688 133.88989258 C-1.80139794 132.42357756 -0.27707816 130.92014259 1.23339844 129.39111328 C-1.66614642 128.06286314 -1.66614642 128.06286314 -4.03613281 129.31689453 C-4.8753125 129.77451172 -5.71449219 130.23212891 -6.57910156 130.70361328 C-14.59771914 135.04236915 -21.66713486 136.55296609 -30.76660156 135.39111328 C-37.73311869 133.07443717 -42.62939582 130.0448181 -46.95019531 124.17626953 C-49.4941677 121.67606441 -52.50709447 120.37034403 -55.70410156 118.89111328 C-63.68882175 115.14422132 -68.4812867 111.53548185 -72.07910156 103.39111328 C-74.75570308 97.57550732 -79.00807978 94.10841575 -84.76660156 91.39111328 C-87.47603951 91.1496486 -87.47603951 91.1496486 -89.76660156 91.39111328 Z M-25.76660156 178.39111328 C-32.27869793 186.05324874 -37.51524662 195.37499776 -37.59863281 205.59814453 C-37.6540625 206.18982422 -37.70949219 206.78150391 -37.76660156 207.39111328 C-38.42660156 207.72111328 -39.08660156 208.05111328 -39.76660156 208.39111328 C-38.98530085 210.88663812 -38.98530085 210.88663812 -37.76660156 213.39111328 C-36.77660156 213.72111328 -35.78660156 214.05111328 -34.76660156 214.39111328 C-34.6413208 213.85333252 -34.51604004 213.31555176 -34.38696289 212.76147461 C-32.04763514 202.81747505 -29.66660967 193.21777865 -25.58691406 183.82470703 C-24.46290002 181.29773427 -24.46290002 181.29773427 -25.76660156 178.39111328 Z " fill="#143A63" transform="translate(133.7666015625,12.60888671875)"/>
<path d="M0 0 C0.91030975 0.00309174 1.82061951 0.00618347 2.7585144 0.0093689 C43.0315937 0.25036209 78.13141103 13.28726586 113.5 31.5 C113.5 24.57 113.5 17.64 113.5 10.5 C113.83 10.5 114.16 10.5 114.5 10.5 C115.9295424 54.40737373 116.87764897 99.21740422 99.5 140.5 C99.15420898 141.33015625 98.80841797 142.1603125 98.45214844 143.015625 C92.04542515 158.23952192 84.34155174 172.20563494 74.5 185.5 C73.76265625 186.50417969 73.0253125 187.50835937 72.265625 188.54296875 C64.51396394 198.94758793 56.19019798 209.38248005 45.53515625 216.9375 C43.36887928 218.52271627 43.36887928 218.52271627 41.23828125 220.828125 C37.93931026 224.04709242 34.39878225 226.61935982 30.625 229.25 C29.88483643 229.76933105 29.14467285 230.28866211 28.38208008 230.82373047 C5.78697805 246.5 5.78697805 246.5 -0.3125 246.5 C-4.04123335 245.3302013 -5.80962493 243.61649 -8.62109375 241 C-11.64116296 238.58896761 -14.8372589 237.65665509 -18.5 236.5 C-17.84 236.17 -17.18 235.84 -16.5 235.5 C-16.78875 234.64664063 -17.0775 233.79328125 -17.375 232.9140625 C-20.04341634 223.92668803 -20.88569888 215.56907784 -20.875 206.1875 C-20.87628906 205.10355957 -20.87757812 204.01961914 -20.87890625 202.90283203 C-20.78524549 195.91978386 -19.97708229 189.32364424 -18.5 182.5 C-17.56576355 185.51031744 -17.45550089 186.36650268 -18.5 189.5 C-17.18 189.83 -15.86 190.16 -14.5 190.5 C-13.51 187.2 -12.52 183.9 -11.5 180.5 C-8.38551208 182.05724396 -6.87097281 182.93894155 -4.5 185.1875 C-1.8823522 187.73793855 -1.8823522 187.73793855 0.3671875 187.359375 C19.28168206 179.73815009 33.31044087 157.82587366 42.5 140.5 C45.93485993 141.07457877 47.45320803 142.13648292 49.77734375 144.6953125 C50.37353516 145.32824219 50.96972656 145.96117187 51.58398438 146.61328125 C52.8217735 147.9567194 54.0535482 149.30572347 55.27929688 150.66015625 C58.62175803 154.35989074 58.62175803 154.35989074 63.171875 155.8828125 C66.66781444 153.80636525 68.06803664 150.78352499 69.8125 147.25 C70.19567383 146.49710693 70.57884766 145.74421387 70.97363281 144.96850586 C75.53580793 135.76248706 79.18284331 126.21520002 82.5 116.5 C82.75797363 115.74638184 83.01594727 114.99276367 83.28173828 114.21630859 C89.78242575 94.65271162 91.11798536 73.98507015 90.5 53.5 C60.4800826 36.9260941 29.94976097 28.45715204 -4.5 28.5 C-5.80453125 28.48839844 -7.1090625 28.47679688 -8.453125 28.46484375 C-22.40710048 28.87048257 -38.52157672 32.02154388 -51.67749023 36.60766602 C-56.91039409 38.26204397 -61.63962989 36.70925914 -66.5 34.5 C-65.93628586 37.76954202 -65.00037734 39.32575883 -62.5 41.5 C-72.91505452 37.64326246 -81.77430097 30.21559035 -90.5 23.5 C-89.5 20.5 -89.5 20.5 -86.1328125 18.66796875 C-84.63661839 17.99341057 -83.13340399 17.33429436 -81.625 16.6875 C-80.82433105 16.33856689 -80.02366211 15.98963379 -79.19873047 15.63012695 C-70.49938395 11.93167835 -61.57873132 9.1013186 -52.5 6.5 C-51.45714844 6.19320312 -50.41429687 5.88640625 -49.33984375 5.5703125 C-33.20739023 1.16848974 -16.65198888 -0.09437005 0 0 Z " fill="#ACABAC" transform="translate(134.5,33.5)"/>
<path d="M0 0 C0.86271011 -0.0033284 1.72542023 -0.0066568 2.61427307 -0.01008606 C4.44946763 -0.0151634 6.28467147 -0.01749414 8.11987305 -0.01733398 C10.89843586 -0.01949779 13.67658687 -0.03758104 16.45507812 -0.05664062 C18.24088407 -0.05957911 20.02669189 -0.06156086 21.8125 -0.0625 C23.0428019 -0.07327827 23.0428019 -0.07327827 24.29795837 -0.08427429 C34.8117559 -0.04368048 44.53425195 1.75470941 52.515625 8.9921875 C59.47653071 16.42007221 61.05722555 23.01635928 60.7890625 33.11328125 C60.1593655 39.85880254 57.18255528 44.27170814 52.50390625 49.16796875 C47.1354852 53.16796875 47.1354852 53.16796875 44.50390625 53.16796875 C44.84123779 53.67134766 45.17856934 54.17472656 45.52612305 54.69335938 C47.08248434 57.01738356 48.63695342 59.34266768 50.19140625 61.66796875 C50.72185547 62.45945313 51.25230469 63.2509375 51.79882812 64.06640625 C55.12527474 69.04587235 58.36426894 74.06858583 61.50390625 79.16796875 C58.39004543 80.72489916 55.10645693 80.3936407 51.69140625 80.41796875 C50.97919922 80.43859375 50.26699219 80.45921875 49.53320312 80.48046875 C44.91846788 80.51462035 42.00744067 80.22337667 38.50390625 77.16796875 C36.35097219 74.26785526 34.51540394 71.22014571 32.69140625 68.10546875 C32.18931641 67.27724609 31.68722656 66.44902344 31.16992188 65.59570312 C27.50390625 59.46572598 27.50390625 59.46572598 27.50390625 57.16796875 C21.56390625 56.83796875 15.62390625 56.50796875 9.50390625 56.16796875 C9.51550781 57.81667969 9.52710938 59.46539062 9.5390625 61.1640625 C9.54843863 63.31119679 9.55753902 65.4583323 9.56640625 67.60546875 C9.57478516 68.69408203 9.58316406 69.78269531 9.59179688 70.90429688 C9.59663086 72.45600586 9.59663086 72.45600586 9.6015625 74.0390625 C9.60941772 75.4765686 9.60941772 75.4765686 9.61743164 76.94311523 C9.50390625 79.16796875 9.50390625 79.16796875 8.50390625 80.16796875 C5.66055577 80.2678385 2.84693462 80.30674756 0.00390625 80.29296875 C-0.79402344 80.29683594 -1.59195312 80.30070312 -2.4140625 80.3046875 C-8.36948608 80.29457642 -8.36948608 80.29457642 -9.49609375 79.16796875 C-9.59639232 76.7393984 -9.632278 74.33925262 -9.62548828 71.91015625 C-9.6272406 71.15083801 -9.62899292 70.39151978 -9.63079834 69.60919189 C-9.63521705 67.08709459 -9.63227881 64.56506682 -9.62890625 62.04296875 C-9.62957928 60.29801419 -9.6305493 58.55305971 -9.63180542 56.80810547 C-9.63328242 53.1461498 -9.63112778 49.48421847 -9.62646484 45.82226562 C-9.62076755 41.11752383 -9.62404655 36.41283907 -9.63003731 31.70809937 C-9.63364287 28.10342984 -9.63250436 24.49877393 -9.62990952 20.894104 C-9.62924023 19.15887444 -9.63006871 17.42364366 -9.63238907 15.68841553 C-9.63491552 13.26750388 -9.63107513 10.84668589 -9.62548828 8.42578125 C-9.62751251 7.70158997 -9.62953674 6.97739868 -9.63162231 6.23126221 C-9.59915303 -1.32503495 -6.68785274 0.0088767 0 0 Z M9.50390625 15.16796875 C9.47504287 19.64712203 9.45715438 24.12625166 9.44140625 28.60546875 C9.43302734 29.88486328 9.42464844 31.16425781 9.41601562 32.48242188 C9.41279297 33.69736328 9.40957031 34.91230469 9.40625 36.1640625 C9.40101318 37.28997803 9.39577637 38.41589355 9.39038086 39.57592773 C9.20845177 42.09767746 9.20845177 42.09767746 10.50390625 43.16796875 C24.42312836 44.12054684 24.42312836 44.12054684 37.50390625 40.16796875 C40.85636884 36.48843664 42.4020541 33.15872424 42.50390625 28.16796875 C41.00616952 23.59593031 39.43219177 20.03455548 35.50390625 17.16796875 C29.53729495 15.32350475 24.21989534 14.91135986 18.00390625 15.04296875 C17.18148438 15.05199219 16.3590625 15.06101562 15.51171875 15.0703125 C13.50898542 15.0936001 11.50640471 15.12945916 9.50390625 15.16796875 Z " fill="#1F4672" transform="translate(410.49609375,80.83203125)"/>
<path d="M0 0 C8.06652174 -0.02312737 16.13302972 -0.04091709 24.19957638 -0.05181217 C27.94483037 -0.05704014 31.69006176 -0.06413622 35.43530273 -0.07543945 C39.04681687 -0.08627141 42.65830921 -0.09227749 46.26983833 -0.09487724 C47.65060329 -0.09673094 49.031367 -0.10035049 50.41212273 -0.10573006 C52.33975952 -0.11294447 54.26741807 -0.11340809 56.19506836 -0.11352539 C57.29427109 -0.115746 58.39347382 -0.11796661 59.52598572 -0.12025452 C62 0 62 0 63 1 C63.07271741 3.35313555 63.08370868 5.70833668 63.0625 8.0625 C63.05347656 9.35285156 63.04445313 10.64320312 63.03515625 11.97265625 C63.02355469 12.97167969 63.01195312 13.97070312 63 15 C60.22063662 15.92645446 58.74256078 16.10056322 55.89575195 16.02172852 C54.6648156 15.99158409 54.6648156 15.99158409 53.40901184 15.96083069 C52.52767075 15.93379562 51.64632965 15.90676056 50.73828125 15.87890625 C49.83248825 15.85529526 48.92669525 15.83168427 47.99345398 15.80735779 C45.09964135 15.73076856 42.20609952 15.64672369 39.3125 15.5625 C37.35092472 15.50927458 35.38933622 15.45653421 33.42773438 15.40429688 C28.61831801 15.27515978 23.80913127 15.13933558 19 15 C19.24556641 16.54880859 19.24556641 16.54880859 19.49609375 18.12890625 C19.93082575 21.46859159 20.10397128 24.57832599 20.0625 27.9375 C20.05347656 28.89527344 20.04445313 29.85304688 20.03515625 30.83984375 C20.02355469 31.55269531 20.01195312 32.26554687 20 33 C21.11560303 32.96447021 22.23120605 32.92894043 23.38061523 32.89233398 C27.50465346 32.76233771 31.62886921 32.6390471 35.75317383 32.51782227 C37.54099032 32.46432598 39.32875275 32.40899096 41.11645508 32.35180664 C43.68038266 32.27010765 46.24442953 32.19494055 48.80859375 32.12109375 C49.6127623 32.09405869 50.41693085 32.06702362 51.24546814 32.03916931 C53.16298422 31.98714373 55.08181503 31.98812559 57 32 C58 33 58 33 58.09765625 36.16015625 C58.08605469 37.44792969 58.07445312 38.73570313 58.0625 40.0625 C58.05347656 41.35285156 58.04445313 42.64320312 58.03515625 43.97265625 C58.02355469 44.97167969 58.01195312 45.97070312 58 47 C52.76725612 47.02467917 47.53454597 47.04285003 42.30175781 47.05493164 C40.52082733 47.05996711 38.739901 47.06679581 36.95898438 47.07543945 C34.40233335 47.08753942 31.84573688 47.09323609 29.2890625 47.09765625 C28.49005524 47.10281754 27.69104797 47.10797882 26.86782837 47.11329651 C21.22774341 47.11387171 21.22774341 47.11387171 19 46 C19.12568359 47.68029297 19.12568359 47.68029297 19.25390625 49.39453125 C19.35708445 50.86716556 19.45993179 52.33982308 19.5625 53.8125 C19.61857422 54.55048828 19.67464844 55.28847656 19.73242188 56.04882812 C19.95769724 59.36788516 20.06255812 61.81232564 19 65 C33.85 65 48.7 65 64 65 C64 69.95 64 74.9 64 80 C55.8030903 80.02255425 47.60620455 80.04091696 39.40927219 80.05181217 C35.60348423 80.0570402 31.79771852 80.06413638 27.99194336 80.07543945 C24.32207456 80.0862712 20.65222722 80.09227744 16.98234367 80.09487724 C15.57925008 80.09673097 14.17615771 80.1003506 12.7730732 80.10573006 C10.8143032 80.11294419 8.8555118 80.11340809 6.89672852 80.11352539 C5.77976089 80.115746 4.66279327 80.11796661 3.51197815 80.12025452 C1 80 1 80 0 79 C-0.09500548 76.53555943 -0.12557985 74.09925374 -0.11352539 71.63452148 C-0.11367142 70.86384338 -0.11381744 70.09316528 -0.1139679 69.2991333 C-0.1132686 66.73975861 -0.10547545 64.1804558 -0.09765625 61.62109375 C-0.09579213 59.85132385 -0.0943682 58.08155344 -0.09336853 56.31178284 C-0.08954288 51.64448634 -0.0797122 46.97722077 -0.06866455 42.30993652 C-0.05845144 37.55102965 -0.05387113 32.79211779 -0.04882812 28.03320312 C-0.03808997 18.68878847 -0.02101299 9.3443968 0 0 Z " fill="#142F57" transform="translate(322,81)"/>
<path d="M0 0 C2.80644804 1.97693154 5.00903882 3.91709658 7.20703125 6.5546875 C7.20703125 7.2146875 7.20703125 7.8746875 7.20703125 8.5546875 C5.52734375 10.17578125 5.52734375 10.17578125 3.33203125 11.9921875 C0.74509403 14.13869634 -0.90481249 15.72245312 -2.79296875 18.5546875 C-6.10532917 17.96887703 -7.75798923 16.93099413 -10.16796875 14.6171875 C-15.83597433 9.64127524 -21.27703754 9.05860418 -28.671875 9.16015625 C-33.60085694 9.78321905 -37.72368472 11.73945955 -41.79296875 14.5546875 C-42.12296875 15.2146875 -42.45296875 15.8746875 -42.79296875 16.5546875 C-43.45296875 16.5546875 -44.11296875 16.5546875 -44.79296875 16.5546875 C-48.64804204 25.91700834 -50.63148869 34.97951991 -48.17578125 45.09765625 C-45.50758889 51.20144143 -40.44571434 54.7801267 -34.58984375 57.625 C-28.36315159 60.04165325 -22.84897789 60.07928668 -16.58984375 57.7265625 C-13.34852591 56.21394751 -11.08224977 54.86049887 -8.60546875 52.2421875 C-8.00734375 51.6853125 -7.40921875 51.1284375 -6.79296875 50.5546875 C-2.34745832 50.82502259 -0.15760821 52.62972801 3.01953125 55.6171875 C3.80972656 56.35066406 4.59992188 57.08414063 5.4140625 57.83984375 C6.00574219 58.40574219 6.59742188 58.97164063 7.20703125 59.5546875 C6.8529596 62.2972425 6.39128217 63.38202469 4.34375 65.30078125 C-7.13392163 73.22714778 -18.23173663 77.86764329 -32.375 76.109375 C-39.80210885 74.7092483 -46.36847825 72.55986536 -52.79296875 68.5546875 C-53.41558594 68.17054688 -54.03820312 67.78640625 -54.6796875 67.390625 C-61.59942573 62.32133363 -66.94158294 52.47617011 -69.29296875 44.3046875 C-71.04567581 31.15938456 -68.67790523 18.4991436 -60.79296875 7.5546875 C-59.80296875 7.2246875 -58.81296875 6.8946875 -57.79296875 6.5546875 C-57.46296875 5.5646875 -57.13296875 4.5746875 -56.79296875 3.5546875 C-40.11492791 -10.16331937 -18.02405672 -11.4105052 0 0 Z " fill="#1E4874" transform="translate(588.79296875,86.4453125)"/>
<path d="M0 0 C4.93495672 0.89305607 7.38097864 3.86601017 10.8125 7.3125 C11.42287109 7.89451172 12.03324219 8.47652344 12.66210938 9.07617188 C13.23380859 9.64529297 13.80550781 10.21441406 14.39453125 10.80078125 C14.91893799 11.31809814 15.44334473 11.83541504 15.98364258 12.3684082 C17 14 17 14 16.77441406 16.01977539 C8.49501416 37.19071252 -13.37882794 54.84343335 -31 68 C-31.87785156 68.66257812 -32.75570312 69.32515625 -33.66015625 70.0078125 C-34.43230469 70.56210938 -35.20445312 71.11640625 -36 71.6875 C-36.66 72.16574219 -37.32 72.64398438 -38 73.13671875 C-40.78212421 74.33759658 -42.1368659 73.94153887 -45 73 C-55.06227018 67.79912351 -55.06227018 67.79912351 -56.78125 62.66796875 C-56.81577866 59.99631396 -56.49522652 57.62620124 -56 55 C-55.85046875 53.93265625 -55.7009375 52.8653125 -55.546875 51.765625 C-54.35076531 43.70153061 -54.35076531 43.70153061 -53 41 C-49.938604 42.02046533 -48.17828874 42.81090589 -45.9375 45.1875 C-45.298125 45.785625 -44.65875 46.38375 -44 47 C-33.28332689 45.97715051 -22.68904277 32.40220002 -16.2109375 24.7421875 C-9.83957098 16.9945007 -4.69484412 8.85159722 0 0 Z " fill="#C8A352" transform="translate(177,174)"/>
<path d="M0 0 C0.91030975 0.00309174 1.82061951 0.00618347 2.7585144 0.0093689 C43.0315937 0.25036209 78.13141103 13.28726586 113.5 31.5 C113.5 24.57 113.5 17.64 113.5 10.5 C113.83 10.5 114.16 10.5 114.5 10.5 C114.83 23.37 115.16 36.24 115.5 49.5 C114.84 48.84 114.18 48.18 113.5 47.5 C113.56574219 45.91832031 113.56574219 45.91832031 113.6328125 44.3046875 C112.26567107 39.71297802 111.3456934 39.38079196 107.3046875 37.0703125 C105.00461559 35.88928578 102.70398844 34.74448952 100.375 33.625 C99.14625608 33.0133994 97.91798883 32.40084027 96.69018555 31.78735352 C85.58178271 26.3016183 74.1914246 21.59846988 62.5 17.5 C61.74122559 17.23364746 60.98245117 16.96729492 60.20068359 16.69287109 C30.01501589 6.28943776 -5.27714598 3.54505813 -36.5 10.5 C-37.44182129 10.70399414 -38.38364258 10.90798828 -39.35400391 11.11816406 C-52.64459988 14.05076064 -65.1262501 17.81748986 -77.5 23.5 C-76.46939453 24.20576172 -76.46939453 24.20576172 -75.41796875 24.92578125 C-74.51691406 25.54839844 -73.61585937 26.17101562 -72.6875 26.8125 C-71.79417969 27.42738281 -70.90085937 28.04226562 -69.98046875 28.67578125 C-67.93899254 30.17715037 -66.21537213 31.64785401 -64.5 33.5 C-65.49 33.995 -65.49 33.995 -66.5 34.5 C-65.93628586 37.76954202 -65.00037734 39.32575883 -62.5 41.5 C-72.91505452 37.64326246 -81.77430097 30.21559035 -90.5 23.5 C-89.5 20.5 -89.5 20.5 -86.1328125 18.66796875 C-84.63661839 17.99341057 -83.13340399 17.33429436 -81.625 16.6875 C-80.82433105 16.33856689 -80.02366211 15.98963379 -79.19873047 15.63012695 C-70.49938395 11.93167835 -61.57873132 9.1013186 -52.5 6.5 C-51.45714844 6.19320312 -50.41429687 5.88640625 -49.33984375 5.5703125 C-33.20739023 1.16848974 -16.65198888 -0.09437005 0 0 Z " fill="#ECECED" transform="translate(134.5,33.5)"/>
<path d="M0 0 C0.79792969 0.00386719 1.59585937 0.00773437 2.41796875 0.01171875 C3.21589844 0.00785156 4.01382812 0.00398438 4.8359375 0 C10.79136108 0.01011108 10.79136108 0.01011108 11.91796875 1.13671875 C12.01826732 3.5652891 12.054153 5.96543488 12.04736328 8.39453125 C12.0491156 9.15384949 12.05086792 9.91316772 12.05267334 10.69549561 C12.05709205 13.21759291 12.05415381 15.73962068 12.05078125 18.26171875 C12.05145428 20.00667331 12.0524243 21.75162779 12.05368042 23.49658203 C12.05515742 27.1585377 12.05300278 30.82046903 12.04833984 34.48242188 C12.04264255 39.18716367 12.04592155 43.89184843 12.05191231 48.59658813 C12.05551787 52.20125766 12.05437936 55.80591357 12.05178452 59.4105835 C12.05111523 61.14581306 12.05194371 62.88104384 12.05426407 64.61627197 C12.05679052 67.03718362 12.05295013 69.45800161 12.04736328 71.87890625 C12.04938751 72.60309753 12.05141174 73.32728882 12.05349731 74.07342529 C12.03223141 79.02245609 12.03223141 79.02245609 10.91796875 80.13671875 C8.28050119 80.26357681 5.68087709 80.32192492 3.04296875 80.32421875 C2.30949219 80.33646484 1.57601563 80.34871094 0.8203125 80.36132812 C-3.01766639 80.37181441 -4.81550199 80.31440492 -8.08203125 78.13671875 C-8.34421804 75.62488042 -8.41217669 73.36636855 -8.34667969 70.85717773 C-8.33897049 70.10746704 -8.33126129 69.35775635 -8.32331848 68.58532715 C-8.29398098 66.10071499 -8.24295798 63.61705533 -8.19140625 61.1328125 C-8.16591679 59.41172459 -8.14161958 57.69061864 -8.11846924 55.96949768 C-8.06685281 52.36038859 -8.00533154 48.75163456 -7.93603516 45.14282227 C-7.84715615 40.50665727 -7.7757162 35.87044143 -7.71075058 31.23388577 C-7.66024734 27.67975922 -7.60412522 24.12574134 -7.54590607 20.57173347 C-7.51789285 18.86163873 -7.49080938 17.1515285 -7.46465302 15.44140434 C-7.42662279 13.05642887 -7.3818898 10.67168008 -7.33496094 8.28686523 C-7.32449234 7.57359573 -7.31402374 6.86032623 -7.30323792 6.1254425 C-7.1632201 -0.2822318 -6.33484968 0.01075526 0 0 Z " fill="#284E79" transform="translate(493.08203125,80.86328125)"/>
<path d="M0 0 C4.79102435 1.73353168 9.1391787 4.12667775 13.5625 6.625 C14.69461914 7.22634766 14.69461914 7.22634766 15.84960938 7.83984375 C21.38750468 10.99180883 23.77771367 14.07147835 26 20 C26.43183594 21.08023438 26.86367187 22.16046875 27.30859375 23.2734375 C27.68113281 24.29695313 28.05367187 25.32046875 28.4375 26.375 C30.32020787 31.43074513 32.50252283 36.10021955 35.1796875 40.78125 C36.24322524 43.65786636 35.92925674 45.09551155 35 48 C33.73046875 50.46484375 33.73046875 50.46484375 32.1875 52.9375 C31.65253906 53.79988281 31.11757812 54.66226563 30.56640625 55.55078125 C28.74760662 58.39464002 26.90622364 61.21398084 25 64 C22.00675737 62.9024777 21.15389099 62.32317108 19.75 59.375 C19.5025 58.59125 19.255 57.8075 19 57 C15.87525373 58.63473516 15.87525373 58.63473516 15.3125 61.125 C15.209375 61.74375 15.10625 62.3625 15 63 C14.13619741 61.71475739 13.28419631 60.42157581 12.4375 59.125 C11.96183594 58.40570313 11.48617187 57.68640625 10.99609375 56.9453125 C10.66738281 56.30335938 10.33867188 55.66140625 10 55 C10.33 54.34 10.66 53.68 11 53 C12.65 53.33 14.3 53.66 16 54 C15.608125 53.0925 15.21625 52.185 14.8125 51.25 C14.40064453 50.28320312 14.40064453 50.28320312 13.98046875 49.296875 C13.28117768 47.65869512 12.57465047 46.02359627 11.86328125 44.390625 C7.25458174 33.63214666 3.57148685 22.63177989 0.625 11.3125 C0.44509521 10.6412207 0.26519043 9.96994141 0.07983398 9.27832031 C-0.76823042 5.88259945 -1.29453283 3.32039265 0 0 Z " fill="#CBA251" transform="translate(54,128)"/>
<path d="M0 0 C1 3 1 3 0.32592773 4.96679688 C-0.95303423 7.48809312 -2.23670118 10.00287085 -3.5625 12.5 C-4.0584668 13.43545654 -4.55443359 14.37091309 -5.06542969 15.3347168 C-18.64284008 40.23293336 -44.08770951 72.81740476 -72 83 C-75.96063822 82.74632276 -78.66397385 80.25201961 -81.75 77.9375 C-83.22726563 76.83728516 -83.22726563 76.83728516 -84.734375 75.71484375 C-85.48203125 75.14894531 -86.2296875 74.58304687 -87 74 C-86.23528638 77.14735248 -85.46208223 80.292563 -84.6875 83.4375 C-84.47416016 84.31599609 -84.26082031 85.19449219 -84.04101562 86.09960938 C-82.62282426 91.83587593 -80.96037673 97.42557804 -79 103 C-80.60540659 102.21085079 -82.20928016 101.41858235 -83.8125 100.625 C-85.15248047 99.96371094 -85.15248047 99.96371094 -86.51953125 99.2890625 C-89 98 -89 98 -92 96 C-91.34 96 -90.68 96 -90 96 C-90.433125 94.71996094 -90.433125 94.71996094 -90.875 93.4140625 C-93.54341634 84.42668803 -94.38569888 76.06907784 -94.375 66.6875 C-94.37693359 65.06158936 -94.37693359 65.06158936 -94.37890625 63.40283203 C-94.28524549 56.41978386 -93.47708229 49.82364424 -92 43 C-91.06576355 46.01031744 -90.95550089 46.86650268 -92 50 C-90.68 50.33 -89.36 50.66 -88 51 C-87.01 47.7 -86.02 44.4 -85 41 C-84.34 41.33 -83.68 41.66 -83 42 C-83.13277344 42.59167969 -83.26554687 43.18335938 -83.40234375 43.79296875 C-83.76795522 45.42887994 -84.12976452 47.06564433 -84.48828125 48.703125 C-84.84120973 50.28726197 -85.22189297 51.86538258 -85.625 53.4375 C-85.74875 54.283125 -85.8725 55.12875 -86 56 C-86.13535156 56.75152344 -86.27070312 57.50304687 -86.41015625 58.27734375 C-86.71621587 61.14395848 -86.75555322 63.2079269 -86 66 C-82.44813884 69.7476862 -78.35229413 72.06364991 -73.5859375 73.9609375 C-69.65753944 74.02027886 -67.29034097 71.86764825 -64.3125 69.5625 C-63.69745605 69.10383545 -63.08241211 68.6451709 -62.44873047 68.17260742 C-60.61856976 66.79891425 -58.80697117 65.40400692 -57 64 C-56.05769531 63.27296875 -55.11539063 62.5459375 -54.14453125 61.796875 C-51.73327872 59.89777998 -49.35885978 57.96365814 -47 56 C-45.93845703 55.12408203 -45.93845703 55.12408203 -44.85546875 54.23046875 C-37.34014569 47.86471709 -31.32235418 40.3112379 -25.375 32.5 C-24.8284375 31.79230469 -24.281875 31.08460938 -23.71875 30.35546875 C-20.54240027 26.19885798 -17.69553619 22.00424905 -15.11376953 17.45117188 C-14.74622559 16.97228516 -14.37868164 16.49339844 -14 16 C-12.33333333 16 -10.66666667 16 -9 16 C-6.89042554 13.58905775 -5.47314829 10.8315058 -4 8 C-3.60296875 7.236875 -3.2059375 6.47375 -2.796875 5.6875 C-1.84131108 3.80328946 -0.91752852 1.90302212 0 0 Z " fill="#EEEFEF" transform="translate(208,173)"/>
<path d="M0 0 C2.31638488 1.98626094 3.62256481 3.91528235 4.88525391 6.67358398 C5.2221524 7.40121445 5.5590509 8.12884491 5.90615845 8.87852478 C6.25939178 9.65982254 6.61262512 10.4411203 6.9765625 11.24609375 C7.34727875 12.05361588 7.717995 12.861138 8.09994507 13.69313049 C8.88133346 15.39886627 9.65946826 17.10609574 10.43457031 18.81469727 C11.6205093 21.4276059 12.81718595 24.03538282 14.015625 26.64257812 C14.77407715 28.30179109 15.53191054 29.96128706 16.2890625 31.62109375 C16.6463443 32.40036728 17.0036261 33.17964081 17.37173462 33.98252869 C17.7023288 34.71331131 18.03292297 35.44409393 18.37353516 36.19702148 C18.6642691 36.83639145 18.95500305 37.47576141 19.25454712 38.13450623 C20.03309242 40.08281368 20.62007881 41.93570399 21 44 C19.43058802 45.56941198 17.85865006 45.2449847 15.6875 45.3125 C12.45299974 45.26621939 11.27247187 45.17710671 8.5 43.375 C7 41 7 41 6 35 C-0.27 35.33 -6.54 35.66 -13 36 C-14.32 38.64 -15.64 41.28 -17 44 C-19.24512262 45.12256131 -20.51456649 45.13413762 -23 45.125 C-24.051875 45.12886719 -24.051875 45.12886719 -25.125 45.1328125 C-27 45 -27 45 -29 44 C-27.60163525 39.5115902 -25.83950376 35.36454562 -23.8125 31.125 C-20.88437781 24.95281031 -18.09648623 18.7313342 -15.39770508 12.45556641 C-9.34476082 -1.55437606 -9.34476082 -1.55437606 0 0 Z M-5 12 C-5.64836042 13.74906531 -6.29358784 15.49929219 -6.9375 17.25 C-7.47697266 18.71179688 -7.47697266 18.71179688 -8.02734375 20.203125 C-9.10602056 23.17026161 -9.10602056 23.17026161 -10 27 C-6.04 27 -2.08 27 2 27 C1.34 25.35 0.68 23.7 0 22 C-1.33333333 18.66666667 -2.66666667 15.33333333 -4 12 C-4.33 12 -4.66 12 -5 12 Z " fill="#2E699D" transform="translate(346,174)"/>
<path d="M0 0 C3.93524852 12.35024536 4.16944505 24.62575169 4.125 37.5 C4.13080078 39.18029297 4.13080078 39.18029297 4.13671875 40.89453125 C4.12422091 51.73016187 3.71534814 62.43076981 1.1875 73 C1.00864258 73.76634766 0.82978516 74.53269531 0.64550781 75.32226562 C-3.28183992 91.81850655 -9.34097125 107.38788898 -18 122 C-18.33 122 -18.66 122 -19 122 C-19.66220673 111.18395671 -19.40741041 103.20597563 -14.58984375 93.35546875 C-11.94990153 87.7836988 -10.48326664 81.96617518 -9 76 C-8.71125 74.91074219 -8.4225 73.82148438 -8.125 72.69921875 C-4.44197314 57.06406144 -4.54248771 40.41363735 -5.3125 24.4375 C-5.36422363 23.34260254 -5.36422363 23.34260254 -5.41699219 22.22558594 C-5.70420221 17.70779324 -6.47683367 13.4603583 -7.57446289 9.06884766 C-8.20677627 5.99470907 -8.13310872 3.128055 -8 0 C-5.13822943 -1.43088528 -3.06624227 -0.59991697 0 0 Z " fill="#AD8D5B" transform="translate(290,98)"/>
<path d="M0 0 C0.33 0 0.66 0 1 0 C0.96777344 1.27875 0.93554688 2.5575 0.90234375 3.875 C0.91173028 5.58334774 0.92358038 7.29168318 0.9375 9 C0.90978516 9.83917969 0.88207031 10.67835937 0.85351562 11.54296875 C0.92817284 15.39528097 1.23277535 18.01280025 3.63745117 21.10693359 C5.98475346 23.26592966 8.40993471 25.13875897 11 27 C11.94077393 27.68739258 12.88154785 28.37478516 13.85083008 29.08300781 C17.00805539 31.32376751 20.20851711 33.4898651 23.4375 35.625 C24.01870605 36.01129578 24.59991211 36.39759155 25.19873047 36.79559326 C48.64384723 52.32137505 73.40465057 64.01002273 100 73 C94.79972936 74.71665978 90.14610436 72.87720112 85 71.5625 C83.92564697 71.28809082 82.85129395 71.01368164 81.74438477 70.73095703 C54.96238667 63.63211416 29.47357853 50.50299231 8 33 C10.95948503 44.66882668 17.79729999 52.52932743 27 60 C26.38125 60.28875 25.7625 60.5775 25.125 60.875 C22.86674235 61.93720042 22.86674235 61.93720042 21 64 C19.18381144 62.88096454 17.37214474 61.75458716 15.5625 60.625 C14.55316406 59.99851563 13.54382813 59.37203125 12.50390625 58.7265625 C10 57 10 57 9 55 C10.32 53.68 11.64 52.36 13 51 C12.4225 50.896875 11.845 50.79375 11.25 50.6875 C8.5299258 49.85636622 7.04542928 48.98968382 5 47 C4.71484375 44.36328125 4.71484375 44.36328125 4.9375 41.3125 C5.15018528 35.63174483 4.18399006 32.18697639 2 27 C1.96377667 25.33372702 1.95100158 23.66594626 2 22 C1.34 21.34 0.68 20.68 0 20 C-0.22705078 17.93701172 -0.22705078 17.93701172 -0.1953125 15.4296875 C-0.18886719 14.53378906 -0.18242187 13.63789062 -0.17578125 12.71484375 C-0.15902344 11.77769531 -0.14226563 10.84054688 -0.125 9.875 C-0.11597656 8.93011719 -0.10695313 7.98523437 -0.09765625 7.01171875 C-0.07404522 4.67422708 -0.04111516 2.33723877 0 0 Z " fill="#E5E8E9" transform="translate(21,43)"/>
<path d="M0 0 C1.20849609 -0.00386719 1.20849609 -0.00386719 2.44140625 -0.0078125 C4.4375 0.125 4.4375 0.125 5.4375 1.125 C5.53018999 2.47594982 5.55497326 3.83167091 5.55102539 5.18579102 C5.55094986 6.04660782 5.55087433 6.90742462 5.55079651 7.79432678 C5.54563522 8.72973801 5.54047394 9.66514923 5.53515625 10.62890625 C5.5337413 11.58192123 5.53232635 12.53493622 5.53086853 13.51683044 C5.52525152 16.57375165 5.51269616 19.63060077 5.5 22.6875 C5.49498719 24.75455624 5.49042391 26.82161362 5.48632812 28.88867188 C5.47527656 33.96747588 5.45800055 39.0462257 5.4375 44.125 C0.77078651 45.12501003 -1.59551135 44.95283144 -6.5625 44.125 C-6.5625 29.935 -6.5625 15.745 -6.5625 1.125 C-4.1828388 -0.0648306 -2.64764265 -0.00849966 0 0 Z " fill="#3F73A2" transform="translate(376.5625,173.875)"/>
<path d="M0 0 C1.0621875 0.16371094 2.124375 0.32742187 3.21875 0.49609375 C8.9708648 1.2151081 14.71245098 1.10749889 20.5 1.0625 C21.60859375 1.05798828 22.7171875 1.05347656 23.859375 1.04882812 C26.57297399 1.03713158 29.28645761 1.02074086 32 1 C32.495 2.485 32.495 2.485 33 4 C33.99 3.67 34.98 3.34 36 3 C36.5878125 3.9590625 36.5878125 3.9590625 37.1875 4.9375 C39.38472296 7.43778819 40.75791433 7.64950425 44 8 C35.90075319 13.39949788 27.70082884 15.48540371 18 14 C9.8556523 11.34655021 4.30058738 7.43171679 0 0 Z " fill="#28537E" transform="translate(85,135)"/>
<path d="M0 0 C15.3140625 -0.0309375 15.3140625 -0.0309375 30.9375 -0.0625 C35.7790979 -0.07615601 35.7790979 -0.07615601 40.71850586 -0.09008789 C43.2589514 -0.09300676 45.7993974 -0.09555539 48.33984375 -0.09765625 C49.00407852 -0.10026962 49.66831329 -0.102883 50.35267639 -0.10557556 C52.30012857 -0.11285688 54.24760258 -0.1133384 56.19506836 -0.11352539 C57.29427109 -0.115746 58.39347382 -0.11796661 59.52598572 -0.12025452 C62 0 62 0 63 1 C63.07271741 3.35313555 63.08370868 5.70833668 63.0625 8.0625 C63.05347656 9.35285156 63.04445313 10.64320312 63.03515625 11.97265625 C63.02355469 12.97167969 63.01195312 13.97070312 63 15 C57.41615387 16.86128204 51.68852856 16.13770571 46 15 C46 14.67 46 14.34 46 14 C50.62 13.67 55.24 13.34 60 13 C60.33 9.37 60.66 5.74 61 2 C31.3 1.505 31.3 1.505 1 1 C1 26.74 1 52.48 1 79 C0.67 79 0.34 79 0 79 C0 52.93 0 26.86 0 0 Z " fill="#AEBBC5" transform="translate(322,81)"/>
<path d="M0 0 C5.29158974 1.40071493 7.77478044 4.85487245 11 9 C7.13857796 8.21616433 4.98671756 6.57189568 2 4 C0.26421558 9.85827243 -1.05766485 15.88146568 0 22 C0.99 22.66 1.98 23.32 3 24 C3 24.66 3 25.32 3 26 C6.36434854 27.94097031 9.0937913 28.93257407 13 29 C16.15842417 27.34752159 18.88725656 25.1938059 21.6875 23 C23.18448871 21.8451438 24.68811698 20.69882719 26.19921875 19.5625 C26.85752686 19.04816406 27.51583496 18.53382813 28.1940918 18.00390625 C28.7900415 17.67261719 29.38599121 17.34132812 30 17 C30.99 17.33 31.98 17.66 33 18 C27.82437111 22.35333271 22.62890687 26.68966018 17.125 30.625 C16.10792969 31.35589844 16.10792969 31.35589844 15.0703125 32.1015625 C12.24032932 33.32966841 10.91363607 32.96538767 8 32 C-2.06227018 26.79912351 -2.06227018 26.79912351 -3.78125 21.66796875 C-3.81577866 18.99631396 -3.49522652 16.62620124 -3 14 C-2.85046875 12.93265625 -2.7009375 11.8653125 -2.546875 10.765625 C-1.35076531 2.70153061 -1.35076531 2.70153061 0 0 Z " fill="#927236" transform="translate(124,215)"/>
<path d="M0 0 C3.39298506 1.05428716 6.65740883 2.25202145 9.8984375 3.69921875 C22.61322432 9.36741146 35.57542397 13.35990441 49 17 C49 17.33 49 17.66 49 18 C41.12537894 18.38596412 34.47049473 17.43941291 26.9375 15.1875 C26.02162109 14.92646484 25.10574219 14.66542969 24.16210938 14.39648438 C22.33896178 13.87392615 20.51900224 13.34009884 18.70263672 12.79443359 C16.8646287 12.25415554 15.01638346 11.74779497 13.16064453 11.27197266 C12.2632959 11.03397949 11.36594727 10.79598633 10.44140625 10.55078125 C9.63517822 10.34751221 8.8289502 10.14424316 7.99829102 9.93481445 C5.42763188 8.73224221 5.06160249 7.57566646 4 5 C2.6949419 3.31110128 1.36639342 1.6396721 0 0 Z " fill="#E3E8EC" transform="translate(56,109)"/>
<path d="M0 0 C0.78375 0.5775 1.5675 1.155 2.375 1.75 C3.6383521 2.49205313 4.90961556 3.22076242 6.1875 3.9375 C7.239375 4.535625 8.29125 5.13375 9.375 5.75 C9.375 6.08 9.375 6.41 9.375 6.75 C5.85230515 7.1525937 4.57559192 6.88372795 1.5625 4.875 C0.840625 4.17375 0.11875 3.4725 -0.625 2.75 C-0.625 2.09 -0.625 1.43 -0.625 0.75 C-1.615 0.75 -2.605 0.75 -3.625 0.75 C-3.625 1.41 -3.625 2.07 -3.625 2.75 C-2.965 2.75 -2.305 2.75 -1.625 2.75 C-1.625 4.07 -1.625 5.39 -1.625 6.75 C-2.615 6.75 -3.605 6.75 -4.625 6.75 C-5.285 5.43 -5.945 4.11 -6.625 2.75 C-16.525 2.75 -26.425 2.75 -36.625 2.75 C-34.975 5.39 -33.325 8.03 -31.625 10.75 C-32.945 11.08 -34.265 11.41 -35.625 11.75 C-35.8725 11.193125 -36.12 10.63625 -36.375 10.0625 C-37.60916275 7.59916017 -37.60916275 7.59916017 -39.75 5.1875 C-41.625 2.75 -41.625 2.75 -41.625 -0.25 C-40.96491943 -0.24476318 -40.30483887 -0.23952637 -39.62475586 -0.23413086 C-36.60401378 -0.21321049 -33.583287 -0.2002922 -30.5625 -0.1875 C-29.00499023 -0.17493164 -29.00499023 -0.17493164 -27.41601562 -0.16210938 C-0.15871435 -0.07557826 -0.15871435 -0.07557826 0 0 Z " fill="#1A4E7F" transform="translate(196.625,102.25)"/>
<path d="M0 0 C0.66 0.99 1.32 1.98 2 3 C2.66 3.33 3.32 3.66 4 4 C0.34148491 7.34243015 -3.32604628 10.67456363 -7 14 C-7.78246094 14.71027344 -8.56492188 15.42054688 -9.37109375 16.15234375 C-10.05300781 16.76207031 -10.73492187 17.37179688 -11.4375 18 C-12.03433594 18.53625 -12.63117188 19.0725 -13.24609375 19.625 C-15.07403758 21.05804282 -16.89214713 22.03641012 -19 23 C-19 23.66 -19 24.32 -19 25 C-20.42578125 26.25390625 -20.42578125 26.25390625 -22.3125 27.5625 C-22.92738281 27.99691406 -23.54226562 28.43132812 -24.17578125 28.87890625 C-26 30 -26 30 -29 31 C-27.73507097 27.20521291 -25.8946497 25.76879537 -23 23 C-21.89481924 21.87599621 -20.79071379 20.75093444 -19.6875 19.625 C-9.56051043 9.52017014 -9.56051043 9.52017014 -5 8 C-5 7.01 -5 6.02 -5 5 C-5.66 4.34 -6.32 3.68 -7 3 C-4.69 2.01 -2.38 1.02 0 0 Z " fill="#35597E" transform="translate(139,136)"/>
<path d="M0 0 C1 3 1 3 -0.44140625 6.40625 C-1.13765159 7.77636798 -1.84540097 9.14068038 -2.5625 10.5 C-2.93093018 11.21470459 -3.29936035 11.92940918 -3.67895508 12.66577148 C-4.77524927 14.78299112 -5.88594113 16.89208604 -7 19 C-7.55945313 20.07378906 -8.11890625 21.14757812 -8.6953125 22.25390625 C-11.46622849 27.46932142 -14.43936941 32.2874007 -18 37 C-19.2421875 35.453125 -19.2421875 35.453125 -20 33 C-18.829156 30.38858877 -17.62492717 28.16248251 -16.125 25.75 C-15.28172168 24.33015926 -14.44197527 22.90821589 -13.60546875 21.484375 C-13.17282715 20.75154297 -12.74018555 20.01871094 -12.29443359 19.26367188 C-10.19061764 15.58457313 -8.30892795 11.8012575 -6.4375 8 C-6.09154785 7.2997168 -5.7455957 6.59943359 -5.38916016 5.87792969 C-4.58928916 4.25366432 -3.79407907 2.6271048 -3 1 C-2.34 1.33 -1.68 1.66 -1 2 C-0.67 1.34 -0.34 0.68 0 0 Z " fill="#E2E2E2" transform="translate(231,176)"/>
<path d="M0 0 C7.49448492 2.23273197 14.11158673 5.44943348 21 9.125 C22.04800781 9.67542969 23.09601563 10.22585937 24.17578125 10.79296875 C31.83746137 14.83746137 31.83746137 14.83746137 33 16 C33.3931648 17.67884238 33.74085452 19.36850045 34.0625 21.0625 C34.23910156 21.98160156 34.41570312 22.90070313 34.59765625 23.84765625 C34.79681641 24.91306641 34.79681641 24.91306641 35 26 C34.34 26 33.68 26 33 26 C32.814375 27.2065625 32.814375 27.2065625 32.625 28.4375 C32.41875 29.283125 32.2125 30.12875 32 31 C31.01 31.495 31.01 31.495 30 32 C29.67 27.05 29.34 22.1 29 17 C26.69 16.01 24.38 15.02 22 14 C22 13.34 22 12.68 22 12 C21.18273437 11.74476562 20.36546875 11.48953125 19.5234375 11.2265625 C15.4547296 9.81018303 11.55880927 8.12494047 7.625 6.375 C6.88894531 6.05015625 6.15289062 5.7253125 5.39453125 5.390625 C3.59529031 4.59615497 1.79749504 3.79841229 0 3 C0 2.01 0 1.02 0 0 Z " fill="#979798" transform="translate(215,58)"/>
<path d="M0 0 C14.52319188 -0.83431102 26.31241778 1.10741742 40 6 C40 6.99 40 7.98 40 9 C41.32 9.66 42.64 10.32 44 11 C40.17027184 12.27657605 39.34475772 11.46444235 35.765625 9.76953125 C28.60417453 6.64961665 21.39742187 5.14396879 13.75 3.6875 C12.40732442 3.42237434 11.06487437 3.15610386 9.72265625 2.88867188 C6.48379391 2.24788976 3.24316154 1.61858405 0 1 C0 0.67 0 0.34 0 0 Z " fill="#D7D6D7" transform="translate(156,62)"/>
<path d="M0 0 C4.66460134 1.60345671 9.11941597 3.94449342 13 7 C13.33 7.99 13.66 8.98 14 10 C12.68 9.67 11.36 9.34 10 9 C10 9.66 10 10.32 10 11 C9.01 11.66 8.02 12.32 7 13 C5.7811879 16.55672179 5.7811879 16.55672179 5 20 C4.34 20 3.68 20 3 20 C2.30081695 17.41932437 1.61538951 14.83627153 0.9375 12.25 C0.73833984 11.52039063 0.53917969 10.79078125 0.33398438 10.0390625 C-0.63744407 6.28968956 -1.15449387 3.69725762 0 0 Z " fill="#B28D55" transform="translate(54,128)"/>
<path d="M0 0 C0.99 0.33 1.98 0.66 3 1 C1.43671354 4.96834255 -1.32108991 7.41577781 -4.4375 10.1875 C-4.96375977 10.66292236 -5.49001953 11.13834473 -6.03222656 11.62817383 C-11.20788049 16.26540525 -16.56652475 20.66819395 -22 25 C-22.66 24.67 -23.32 24.34 -24 24 C-24 23.01 -24 22.02 -24 21 C-22.68 21 -21.36 21 -20 21 C-20 20.01 -20 19.02 -20 18 C-16.79235348 14.41977747 -13.18510355 11.43454039 -9.4375 8.4375 C-6.10263245 5.7686809 -2.96510782 3.07673541 0 0 Z " fill="#D5D5D5" transform="translate(191,235)"/>
<path d="M0 0 C5.0480148 1.29135262 7.79252595 2.86404662 11 7 C13.1802636 11.73365957 14.80132906 16.38225095 15.4375 21.5625 C16.13883757 25.84845181 17.92500087 29.00469768 20.0390625 32.765625 C21 35 21 35 20 38 C17.88406622 35.33922922 16.34223819 32.83085728 15.02734375 29.69921875 C14.51397461 28.48008789 14.51397461 28.48008789 13.99023438 27.23632812 C13.64283203 26.39521484 13.29542969 25.55410156 12.9375 24.6875 C12.58623047 23.85798828 12.23496094 23.02847656 11.87304688 22.17382812 C10.33523314 18.49063341 8.91693212 14.90615559 7.9453125 11.03125 C6.67948489 6.97223254 4.5283609 6.17707374 1 4 C0.125 1.75 0.125 1.75 0 0 Z " fill="#D9BD7B" transform="translate(67,136)"/>
<path d="M0 0 C3.92861947 -0.02506235 7.85720679 -0.04302799 11.78588867 -0.05493164 C13.76547892 -0.0623244 15.74504701 -0.07504274 17.72460938 -0.08789062 C25.21191564 -0.10684583 32.55999977 0.13948622 40 1 C38.69921875 2.48828125 38.69921875 2.48828125 37 4 C33.8125 4.1875 33.8125 4.1875 31 4 C30.67 4.66 30.34 5.32 30 6 C29.44441406 5.67257813 28.88882813 5.34515625 28.31640625 5.0078125 C25.65200661 3.84859647 23.82767082 3.79653382 20.9375 3.875 C20.08027344 3.89304688 19.22304687 3.91109375 18.33984375 3.9296875 C17.18162109 3.96449219 17.18162109 3.96449219 16 4 C13.30778463 4 10.6833779 3.89114922 8 3.6875 C7.13375 3.62949219 6.2675 3.57148437 5.375 3.51171875 C2.62418436 2.91902656 1.86158248 2.02198256 0 0 Z " fill="#C5C5C7" transform="translate(117,40)"/>
<path d="M0 0 C3.03574317 1.38602973 5.38038028 3.05572296 7.9375 5.1875 C10.96243754 7.56177524 10.96243754 7.56177524 14.6875 8.0625 C17.11266963 7.00093166 17.11266963 7.00093166 19.6875 5.375 C20.450625 4.92125 21.21375 4.4675 22 4 C24 5 24 5 25 7 C24.319375 7.2475 23.63875 7.495 22.9375 7.75 C20.57222311 8.7565008 18.51447598 9.8259263 16.3125 11.125 C13 13 13 13 11 13 C9.29319053 11.37446717 7.62339805 9.70884005 6 8 C5.87625 8.61875 5.7525 9.2375 5.625 9.875 C5 12 5 12 3 14 C2.49307308 12.4188708 1.99473557 10.83498617 1.5 9.25 C1.2215625 8.36828125 0.943125 7.4865625 0.65625 6.578125 C0 4 0 4 0 0 Z " fill="#8C9399" transform="translate(121,247)"/>
<path d="M0 0 C0.33 0 0.66 0 1 0 C1.11069824 0.82612793 1.22139648 1.65225586 1.33544922 2.50341797 C1.75412219 5.61623626 2.17569088 8.72864585 2.59912109 11.84082031 C2.86904424 13.83108547 3.13573063 15.82178874 3.40234375 17.8125 C4.37321357 24.932212 5.46172082 31.97940148 7 39 C2.2421875 38.28125 2.2421875 38.28125 0.0625 35.75 C-1.31371718 32.18802613 -0.39029003 31.47572506 1 28 C0.94720878 26.02597346 0.94720878 26.02597346 0.625 23.8125 C-0.39673019 15.91512665 -0.07791161 7.94698409 0 0 Z " fill="#1F3252" transform="translate(111,230)"/>
<path d="M0 0 C0.99 0.33 1.98 0.66 3 1 C-2.82804154 7.48209029 -8.7460338 13.86295408 -14.875 20.0625 C-15.40955811 20.60994873 -15.94411621 21.15739746 -16.49487305 21.72143555 C-19.42644159 24.66034563 -22.2029963 27.19410799 -26 29 C-26.66 28.67 -27.32 28.34 -28 28 C-25.23832023 24.31560947 -22.37316017 21.51874087 -18.75 18.6875 C-11.75070082 13.06939586 -5.60368628 7.00460785 0 0 Z " fill="#BBBCBD" transform="translate(182,217)"/>
<path d="M0 0 C0.66 0.33 1.32 0.66 2 1 C1.566875 1.8353125 1.566875 1.8353125 1.125 2.6875 C-0.0251807 4.96108401 -0.0251807 4.96108401 -0.8515625 7.26171875 C-2.16356135 10.38998812 -3.77334955 13.20579013 -5.5 16.125 C-6.1084375 17.15882813 -6.716875 18.19265625 -7.34375 19.2578125 C-8.51690331 21.20015596 -9.74130876 23.11196314 -11 25 C-11.66 25 -12.32 25 -13 25 C-13.61731488 19.18299436 -12.86784557 14.80574844 -9.26171875 10.15234375 C-6.3096736 6.6384692 -3.19110197 3.29699073 0 0 Z " fill="#2D4F76" transform="translate(120,175)"/>
<path d="M0 0 C2.76818223 2.76818223 3.68549875 6.079129 5 9.6875 C5.26039062 10.38294922 5.52078125 11.07839844 5.7890625 11.79492188 C7.39990747 16.15152533 8.77839374 20.51881935 10 25 C9.01 25.33 8.02 25.66 7 26 C5.30122565 22.34729942 3.64015018 18.67938736 2 15 C1.65839844 14.25234375 1.31679688 13.5046875 0.96484375 12.734375 C-1.07083641 7.92448885 -1.13341271 4.94580093 0 0 Z " fill="#CFB47E" transform="translate(61,151)"/>
<path d="M0 0 C1.0725 0.15339844 2.145 0.30679688 3.25 0.46484375 C8.81724831 1.16074979 14.39713442 1.3486234 20 1.5625 C21.06089844 1.60568359 22.12179688 1.64886719 23.21484375 1.69335938 C25.80979151 1.79855996 28.40482084 1.90070119 31 2 C25.7243949 5.51707007 19.08796951 5.41552948 12.875 5.9375 C12.07707031 6.03095703 11.27914062 6.12441406 10.45703125 6.22070312 C8.15603005 6.39932843 6.25736789 6.49060741 4 6 C1.4453125 3.00390625 1.4453125 3.00390625 0 0 Z " fill="#DBE0E5" transform="translate(85,135)"/>
<path d="M0 0 C2.52588702 2.36292656 3.88820837 3.66462511 5 7 C4.67 7.66 4.34 8.32 4 9 C3.17757812 8.93039063 2.35515625 8.86078125 1.5078125 8.7890625 C-7.11437703 8.37089626 -12.145007 9.81141414 -19 15 C-19.75152344 15.56074219 -20.50304687 16.12148437 -21.27734375 16.69921875 C-21.84582031 17.12847656 -22.41429687 17.55773437 -23 18 C-22.42655063 15.13275314 -22.1385485 14.1385485 -20 12 C-19.01 12 -18.02 12 -17 12 C-16.67 11.01 -16.34 10.02 -16 9 C-14.68 9 -13.36 9 -12 9 C-12 8.34 -12 7.68 -12 7 C-8.04 6.34 -4.08 5.68 0 5 C0 3.35 0 1.7 0 0 Z " fill="#5C83A6" transform="translate(206,109)"/>
<path d="M0 0 C0.66 0.99 1.32 1.98 2 3 C1.5875 3.38929688 1.175 3.77859375 0.75 4.1796875 C-4.31859519 9.08988909 -8.68198982 14.42584141 -13 20 C-14.32 19.34 -15.64 18.68 -17 18 C-15.91332031 16.93072266 -15.91332031 16.93072266 -14.8046875 15.83984375 C-9.63826191 10.73055506 -4.6201281 5.61907471 0 0 Z " fill="#D0B16E" transform="translate(164,195)"/>
<path d="M0 0 C0.99 0 1.98 0 3 0 C3.78375 0.804375 4.5675 1.60875 5.375 2.4375 C8.10089852 5.09849617 9.2968335 5.68258573 13 6 C13 7.65 13 9.3 13 11 C11.68 11.33 10.36 11.66 9 12 C8.67 11.34 8.34 10.68 8 10 C6.35 10 4.7 10 3 10 C2.67 9.01 2.34 8.02 2 7 C1.01 6.67 0.02 6.34 -1 6 C-0.01 6 0.98 6 2 6 C2 4.68 2 3.36 2 2 C1.34 2 0.68 2 0 2 C0 1.34 0 0.68 0 0 Z " fill="#0C4E85" transform="translate(193,103)"/>
<path d="M0 0 C4.25177923 0.47241991 6.29969203 2.84964071 9 6 C9 6.99 9 7.98 9 9 C6 10 6 10 3.8125 9.0625 C3.214375 8.711875 2.61625 8.36125 2 8 C1.01 8.66 0.02 9.32 -1 10 C-2 9 -2 9 -2.1875 6.125 C-2 3 -2 3 0 0 Z " fill="#B48C41" transform="translate(177,174)"/>
<path d="M0 0 C2.9237625 2.55388893 4.48594924 5.44109536 6.25 8.875 C6.79140625 9.90367187 7.3328125 10.93234375 7.890625 11.9921875 C9.13643637 15.36991551 9.17712785 16.64518563 8 20 C6.625 22.67578125 6.625 22.67578125 5 25.3125 C4.46375 26.19550781 3.9275 27.07851562 3.375 27.98828125 C2.694375 28.98408203 2.694375 28.98408203 2 30 C1.67 30 1.34 30 1 30 C0.7704289 26.63295715 0.66056471 24.58629732 2.375 21.625 C2.91125 21.08875 3.4475 20.5525 4 20 C4.66 20 5.32 20 6 20 C5.62677718 14.27725008 3.80800613 10.25030013 1.05859375 5.234375 C0 3 0 3 0 0 Z " fill="#C1A474" transform="translate(81,156)"/>
<path d="M0 0 C1.12115979 3.36347936 0.83325195 5.58366701 0 9 C-0.10441406 9.72703125 -0.20882812 10.4540625 -0.31640625 11.203125 C-1.20731636 14.84822008 -2.84225321 18.00485716 -4.5625 21.3125 C-4.89185547 21.95767578 -5.22121094 22.60285156 -5.56054688 23.26757812 C-6.36824255 24.84785228 -7.18337613 26.42432105 -8 28 C-8.7914507 25.70734604 -9.14457286 24.43194469 -8.36328125 22.09765625 C-8.01652344 21.42605469 -7.66976562 20.75445312 -7.3125 20.0625 C-4.9283659 15.09555396 -3.38162331 10.00114715 -1.83203125 4.72265625 C-1 2 -1 2 0 0 Z " fill="#BABABA" transform="translate(213,161)"/>
<path d="M0 0 C5.29158974 1.40071493 7.77478044 4.85487245 11 9 C7.13857796 8.21616433 4.98671756 6.57189568 2 4 C0.33318124 10.00054754 -0.51679152 15.7945858 -1 22 C-3.74265827 18.10522134 -2.85016809 14.31130495 -2.1875 9.875 C-2.04344727 8.78251953 -2.04344727 8.78251953 -1.89648438 7.66796875 C-1.16003667 2.32007334 -1.16003667 2.32007334 0 0 Z " fill="#A9844A" transform="translate(124,215)"/>
<path d="M0 0 C6.71848553 -0.5484478 10.38972709 0.25981806 16 4 C18.36981534 5.25073587 20.44318822 6.14772941 23 7 C23.6875 9.0625 23.6875 9.0625 24 11 C18.66210728 9.34779511 13.94244632 7.01169079 9 4.4375 C6.04814974 3.02307175 3.12374489 1.96687342 0 1 C0 0.67 0 0.34 0 0 Z " fill="#C9C9C8" transform="translate(200,74)"/>
<path d="M0 0 C1.6498275 0.42218816 3.29483665 0.86324425 4.9375 1.3125 C6.31228516 1.67794922 6.31228516 1.67794922 7.71484375 2.05078125 C8.46894531 2.36402344 9.22304687 2.67726563 10 3 C10.33 3.99 10.66 4.98 11 6 C14.00847418 7.22520264 14.00847418 7.22520264 17 8 C17 8.66 17 9.32 17 10 C11.43456631 9.1023494 5.01189321 8.01189321 0.9375 3.9375 C0 2 0 2 0 0 Z " fill="#052449" transform="translate(62,117)"/>
<path d="M0 0 C5.875 1.875 5.875 1.875 7 3 C7.3931648 4.67884238 7.74085452 6.36850045 8.0625 8.0625 C8.23910156 8.98160156 8.41570312 9.90070313 8.59765625 10.84765625 C8.73042969 11.55792969 8.86320313 12.26820312 9 13 C8.34 13 7.68 13 7 13 C6.87625 13.804375 6.7525 14.60875 6.625 15.4375 C6.41875 16.283125 6.2125 17.12875 6 18 C5.34 18.33 4.68 18.66 4 19 C3.67 14.05 3.34 9.1 3 4 C0.525 3.01 0.525 3.01 -2 2 C-1.34 1.34 -0.68 0.68 0 0 Z " fill="#8A8A8B" transform="translate(241,71)"/>
<path d="M0 0 C0.66 0 1.32 0 2 0 C5.01704885 3.1999003 6.49890042 5.61537866 7 10 C6.01 10.33 5.02 10.66 4 11 C4.66 12.65 5.32 14.3 6 16 C2.06451569 12.93906776 -0.68116787 10.50884026 -3 6 C-1.68 5.67 -0.36 5.34 1 5 C0.67 3.35 0.34 1.7 0 0 Z " fill="#EEF1F3" transform="translate(90,210)"/>
<path d="M0 0 C0.66 0.99 1.32 1.98 2 3 C2.66 3.33 3.32 3.66 4 4 C2.23436021 5.65172755 0.46295402 7.29638045 -1.3125 8.9375 C-2.06176758 9.64036133 -2.06176758 9.64036133 -2.82617188 10.35742188 C-5.21561016 12.55697103 -6.88080438 13.96026813 -10 15 C-10 14.34 -10 13.68 -10 13 C-9.360625 12.566875 -8.72125 12.13375 -8.0625 11.6875 C-5.79423967 10.13454016 -5.79423967 10.13454016 -5.125 7.4375 C-5.08375 6.633125 -5.0425 5.82875 -5 5 C-5.66 4.34 -6.32 3.68 -7 3 C-4.69 2.01 -2.38 1.02 0 0 Z " fill="#144778" transform="translate(139,136)"/>
<path d="M0 0 C6.21314398 0.37278864 8.61314204 1.912246 13 6 C13.99 6.66 14.98 7.32 16 8 C15.67 8.99 15.34 9.98 15 11 C10.83846364 10.44512849 8.40462348 8.13719846 5.25 5.5 C4.26515625 4.6853125 3.2803125 3.870625 2.265625 3.03125 C1.51796875 2.3609375 0.7703125 1.690625 0 1 C0 0.67 0 0.34 0 0 Z " fill="#303B54" transform="translate(89,248)"/>
<path d="M0 0 C5.59626471 -0.32919204 9.33335258 -0.43858231 14 3 C15.2633521 3.74205313 16.53461556 4.47076242 17.8125 5.1875 C18.864375 5.785625 19.91625 6.38375 21 7 C21 7.33 21 7.66 21 8 C17.47730515 8.4025937 16.20059192 8.13372795 13.1875 6.125 C12.465625 5.42375 11.74375 4.7225 11 4 C11 3.34 11 2.68 11 2 C10.01 2 9.02 2 8 2 C8 2.66 8 3.32 8 4 C8.66 4 9.32 4 10 4 C10 5.32 10 6.64 10 8 C9.01 8 8.02 8 7 8 C6.34 6.68 5.68 5.36 5 4 C3.68 4 2.36 4 1 4 C0.67 2.68 0.34 1.36 0 0 Z " fill="#7297B4" transform="translate(185,101)"/>
<path d="M0 0 C2.31 0 4.62 0 7 0 C7 4.62 7 9.24 7 14 C1.41615387 15.86128204 -4.31147144 15.13770571 -10 14 C-10 13.67 -10 13.34 -10 13 C-5.38 12.67 -0.76 12.34 4 12 C4.33 8.37 4.66 4.74 5 1 C3.35 1 1.7 1 0 1 C0 0.67 0 0.34 0 0 Z " fill="#7594B3" transform="translate(378,82)"/>
<path d="M0 0 C0.66 0.33 1.32 0.66 2 1 C1.04565609 4.81737564 0.08991072 5.93653361 -3.1875 8.25 C-6.77785141 10.12060326 -9.9865717 10.6723732 -14 11 C-13.67 10.01 -13.34 9.02 -13 8 C-12.01 8 -11.02 8 -10 8 C-9.67 7.34 -9.34 6.68 -9 6 C-6.06769549 4.01871317 -3.48897679 2.64610681 0 2 C0 1.34 0 0.68 0 0 Z " fill="#979697" transform="translate(148,268)"/>
<path d="M0 0 C0.33 0 0.66 0 1 0 C1 6.93 1 13.86 1 21 C-4.28 21 -9.56 21 -15 21 C-15.33 20.34 -15.66 19.68 -16 19 C-11.05 18.67 -6.1 18.34 -1 18 C-0.505 9.09 -0.505 9.09 0 0 Z " fill="#4E5E75" transform="translate(503,140)"/>
<path d="M0 0 C0.99 0 1.98 0 3 0 C1.02947175 7.00632266 -5.13172036 12.97603682 -11 17 C-11.66 17 -12.32 17 -13 17 C-11.63387799 13.90255505 -10.0959759 11.92333129 -7.625 9.625 C-5.30623806 7.39764154 -3.42418374 5.30738265 -1.75 2.5625 C-0.88375 1.2940625 -0.88375 1.2940625 0 0 Z " fill="#527FA7" transform="translate(174,136)"/>
<path d="M0 0 C0.89203125 0.28746094 1.7840625 0.57492188 2.703125 0.87109375 C3.37859375 1.09925781 4.0540625 1.32742187 4.75 1.5625 C4.75 2.5525 4.75 3.5425 4.75 4.5625 C6.07 5.2225 7.39 5.8825 8.75 6.5625 C4.83172427 7.86859191 3.49738528 6.91064961 -0.25 5.3125 C-1.301875 4.87421875 -2.35375 4.4359375 -3.4375 3.984375 C-5.94454062 2.71692669 -7.45643583 1.67990215 -9.25 -0.4375 C-5.70332822 -1.68877906 -3.52746562 -1.16035053 0 0 Z " fill="#C8C7C8" transform="translate(191.25,66.4375)"/>
<path d="M0 0 C0.33 0 0.66 0 1 0 C1.53427272 3.72736953 2.05004193 7.45707381 2.5625 11.1875 C2.71396484 12.24259766 2.86542969 13.29769531 3.02148438 14.38476562 C3.16005859 15.40634766 3.29863281 16.42792969 3.44140625 17.48046875 C3.57232666 18.41785889 3.70324707 19.35524902 3.83813477 20.32104492 C4.00511108 23.08459112 3.66448355 25.32295925 3 28 C2.34 28 1.68 28 1 28 C-0.20514375 18.66013591 -0.09213655 9.39792784 0 0 Z " fill="#07254F" transform="translate(111,230)"/>
<path d="M0 0 C0 0.99 0 1.98 0 3 C-2.40625 5.26171875 -2.40625 5.26171875 -5.5 7.6875 C-6.5209375 8.49574219 -7.541875 9.30398438 -8.59375 10.13671875 C-9.3878125 10.75160156 -10.181875 11.36648438 -11 12 C-11.66 11.67 -12.32 11.34 -13 11 C-13 10.01 -13 9.02 -13 8 C-11.68 8 -10.36 8 -9 8 C-9 7.01 -9 6.02 -9 5 C-4.81395349 0 -4.81395349 0 0 0 Z " fill="#D4D3D4" transform="translate(180,248)"/>
<path d="M0 0 C1.8125 0.125 1.8125 0.125 4 1 C5.75 4.0625 5.75 4.0625 7 7 C6.01 6.67 5.02 6.34 4 6 C3.67 9.96 3.34 13.92 3 18 C2.67 18 2.34 18 2 18 C-0.05213195 12.80126572 -0.86977176 7.56976149 -1 2 C-0.67 1.34 -0.34 0.68 0 0 Z " fill="#666E7F" transform="translate(21,91)"/>
<path d="M0 0 C5.61 0.33 11.22 0.66 17 1 C17 1.33 17 1.66 17 2 C12.38 2 7.76 2 3 2 C3.78375 2.721875 4.5675 3.44375 5.375 4.1875 C7.84412438 6.83299041 8.93260278 8.60373611 10 12 C7.35107221 11.61993645 6.19467845 11.19914355 4.296875 9.2578125 C3.78640625 8.55398437 3.2759375 7.85015625 2.75 7.125 C2.22921875 6.42632812 1.7084375 5.72765625 1.171875 5.0078125 C0 3 0 3 0 0 Z " fill="#7F9BB2" transform="translate(155,102)"/>
<path d="M0 0 C4.01303508 1.556846 7.9092928 3.31138857 11.8125 5.125 C12.97394531 5.66382812 14.13539062 6.20265625 15.33203125 6.7578125 C16.21246094 7.16773437 17.09289062 7.57765625 18 8 C17.01 8.66 16.02 9.32 15 10 C15 9.34 15 8.68 15 8 C14.27425781 8.21527344 13.54851562 8.43054688 12.80078125 8.65234375 C9.35587382 9.0799543 8.1099879 8.35088812 5.1875 6.5625 C4.39730469 6.08941406 3.60710937 5.61632812 2.79296875 5.12890625 C2.20128906 4.75636719 1.60960938 4.38382812 1 4 C1 3.34 1 2.68 1 2 C0.34 1.67 -0.32 1.34 -1 1 C-0.67 0.67 -0.34 0.34 0 0 Z " fill="#3F6A90" transform="translate(84,82)"/>
<path d="M0 0 C4.26838806 -0.02491426 8.53673639 -0.04296047 12.80517578 -0.05493164 C14.25407652 -0.05992785 15.70297231 -0.06672709 17.15185547 -0.07543945 C31.97156783 -0.16225376 31.97156783 -0.16225376 39 1 C39 1.33 39 1.66 39 2 C37.77667969 1.98839844 36.55335938 1.97679687 35.29296875 1.96484375 C23.4909414 1.88934098 11.77779876 2.2538951 0 3 C0 2.01 0 1.02 0 0 Z " fill="#BFBFC1" transform="translate(111,60)"/>
<path d="M0 0 C0 0.66 0 1.32 0 2 C0.66 2.33 1.32 2.66 2 3 C-0.05762909 3.70194375 -2.12136031 4.38601697 -4.1875 5.0625 C-5.91033203 5.63677734 -5.91033203 5.63677734 -7.66796875 6.22265625 C-10.97454508 6.99406151 -12.79082314 6.96093996 -16 6 C-11.38503922 1.96190932 -6.07147123 0 0 0 Z " fill="#99999C" transform="translate(81,48)"/>
<path d="M0 0 C3.69952917 1.25061205 7.35582373 2.59682185 11 4 C6.65263124 5.34326102 3.16439978 4.31931837 -1.125 3.1875 C-2.21748047 2.91969727 -2.21748047 2.91969727 -3.33203125 2.64648438 C-8.7373059 1.2626941 -8.7373059 1.2626941 -11 -1 C-7.48048878 -2.75975561 -3.63324518 -1.01752174 0 0 Z " fill="#D9E1E6" transform="translate(110,112)"/>
<path d="M0 0 C3.09289889 2.86429332 5.20709925 5.69158804 7.25 9.375 C7.77078125 10.29023438 8.2915625 11.20546875 8.828125 12.1484375 C10.12802034 15.31151616 10.21978273 17.61334792 10 21 C7.96520393 17.9478059 6.20038669 14.84162415 4.4375 11.625 C3.81746094 10.50351563 3.19742188 9.38203125 2.55859375 8.2265625 C1.18401909 5.38095181 0.42470959 3.10677975 0 0 Z " fill="#0F234A" transform="translate(62,180)"/>
<path d="M0 0 C0.78375 0.804375 1.5675 1.60875 2.375 2.4375 C4.71982856 4.98690417 4.71982856 4.98690417 7 6 C6.34 9.63 5.68 13.26 5 17 C2.71636622 14.71636622 2.2847151 13.25204532 1.375 10.1875 C1.11460938 9.33542969 0.85421875 8.48335937 0.5859375 7.60546875 C-0.0044509 4.98020834 -0.10588413 2.68079363 0 0 Z " fill="#E3E5E7" transform="translate(48,135)"/>
<path d="M0 0 C0.33 0.66 0.66 1.32 1 2 C-0.36328125 4.64453125 -0.36328125 4.64453125 -2.3125 7.8125 C-4.55630453 11.47631876 -6.52816859 14.95806703 -8 19 C-9.234375 17.44921875 -9.234375 17.44921875 -10 15 C-8.86681578 12.39069424 -7.73085422 10.20785525 -6.25 7.8125 C-5.68925781 6.85053711 -5.68925781 6.85053711 -5.1171875 5.86914062 C-2.30944549 1.15472274 -2.30944549 1.15472274 0 0 Z " fill="#C9C8C8" transform="translate(221,194)"/>
<path d="M0 0 C0.66 0.33 1.32 0.66 2 1 C1.46890625 1.71285156 0.9378125 2.42570313 0.390625 3.16015625 C-3.40185947 8.30215617 -6.99208971 13.36016821 -10 19 C-10.66 18.01 -11.32 17.02 -12 16 C-10.37921571 12.27131047 -8.02767716 9.42653322 -5.4375 6.3125 C-4.63183594 5.33925781 -3.82617188 4.36601562 -2.99609375 3.36328125 C-1 1 -1 1 0 0 Z " fill="#C7D4DD" transform="translate(120,175)"/>
<path d="M0 0 C0.66 0.33 1.32 0.66 2 1 C0.92492371 2.29854721 -0.16043736 3.58858361 -1.25 4.875 C-1.85328125 5.59429687 -2.4565625 6.31359375 -3.078125 7.0546875 C-4.98422497 8.98403259 -6.61085182 9.80542591 -9 11 C-9.81171228 13.55519921 -9.81171228 13.55519921 -10 16 C-10.66 16 -11.32 16 -12 16 C-10.85569823 12.12697862 -9.76679902 8.99736561 -7 6 C-6.34 6 -5.68 6 -5 6 C-4.67 5.01 -4.34 4.02 -4 3 C-1.9375 1.3125 -1.9375 1.3125 0 0 Z " fill="#5480A9" transform="translate(536,87)"/>
<path d="M0 0 C0.66 0 1.32 0 2 0 C3.6875 2.375 3.6875 2.375 5 5 C4.67 5.66 4.34 6.32 4 7 C-1.41390868 6.53328373 -5.20517932 5.75702189 -10 3 C-10 2.34 -10 1.68 -10 1 C-6.31733897 1.59950296 -2.65456815 2.24758891 1 3 C0.67 2.01 0.34 1.02 0 0 Z " fill="#16538D" transform="translate(163,110)"/>
<path d="M0 0 C3.1875 0.3125 3.1875 0.3125 6 1 C5.67 2.32 5.34 3.64 5 5 C7.475 5.99 7.475 5.99 10 7 C10 7.99 10 8.98 10 10 C5.22390502 8.35821735 1.20617096 5.73453298 -3 3 C-1.69921875 1.48046875 -1.69921875 1.48046875 0 0 Z " fill="#939394" transform="translate(59,55)"/>
<path d="M0 0 C2.87570787 2.87570787 4.7827572 5.60892278 7 9 C8.6490657 11.34638491 10.32421789 13.67252485 12 16 C11.67 16.66 11.34 17.32 11 18 C7 13.25 7 13.25 7 11 C5.68 11.33 4.36 11.66 3 12 C2.01 8.04 1.02 4.08 0 0 Z " fill="#A2ABB9" transform="translate(70,191)"/>
<path d="M0 0 C3 3.75 3 3.75 3 6 C2.01 6.66 1.02 7.32 0 8 C-0.72382467 10.05925139 -0.72382467 10.05925139 -1 12 C-1.86380259 10.71475739 -2.71580369 9.42157581 -3.5625 8.125 C-4.03816406 7.40570313 -4.51382813 6.68640625 -5.00390625 5.9453125 C-5.33261719 5.30335938 -5.66132812 4.66140625 -6 4 C-5.67 3.34 -5.34 2.68 -5 2 C-3.35 2.33 -1.7 2.66 0 3 C0 2.01 0 1.02 0 0 Z " fill="#E7E9E8" transform="translate(70,179)"/>
<path d="M0 0 C1.65 0.99 3.3 1.98 5 3 C4.319375 3.5259375 4.319375 3.5259375 3.625 4.0625 C1.35338666 6.77096206 0.83201146 9.60795328 0 13 C-0.66 13 -1.32 13 -2 13 C-2.33 10.36 -2.66 7.72 -3 5 C-2.01 5 -1.02 5 0 5 C0 3.35 0 1.7 0 0 Z " fill="#B4925E" transform="translate(59,135)"/>
<path d="M0 0 C8.88512349 -0.35021655 16.55762426 0.10547117 25 3 C25 3.33 25 3.66 25 4 C16.49174287 3.56891497 8.30566989 3.01290353 0 1 C0 0.67 0 0.34 0 0 Z " fill="#C5C5C5" transform="translate(156,62)"/>
<path d="M0 0 C4.95 2.31 9.9 4.62 15 7 C14.67 7.66 14.34 8.32 14 9 C8.31497465 7.35433477 3.23318364 4.70967216 -2 2 C-1.34 1.34 -0.68 0.68 0 0 Z " fill="#1B466F" transform="translate(60,96)"/>
<path d="M0 0 C3.15133488 1.83827868 6.11964908 3.75972706 9 6 C8.67 6.99 8.34 7.98 8 9 C4 9 4 9 2 8 C0.6250851 5.09740189 0 3.23861295 0 0 Z " fill="#072040" transform="translate(28,75)"/>
<path d="M0 0 C0.99 0.33 1.98 0.66 3 1 C-0.3 4.63 -3.6 8.26 -7 12 C-7.99 11.67 -8.98 11.34 -10 11 C-6.7 7.37 -3.4 3.74 0 0 Z " fill="#B7B8B8" transform="translate(182,217)"/>
<path d="M0 0 C0.33 0 0.66 0 1 0 C1.33 3.96 1.66 7.92 2 12 C1.34 12 0.68 12 0 12 C0.66 15.3 1.32 18.6 2 22 C0.02 22.99 0.02 22.99 -2 24 C-2.10103455 18.39258264 -1.76082036 13.05193239 -1 7.5 C-0.90460938 6.77296875 -0.80921875 6.0459375 -0.7109375 5.296875 C-0.47853833 3.53064133 -0.23993362 1.76522594 0 0 Z " fill="#D0D0D0" transform="translate(225,107)"/>
<path d="M0 0 C2.37948772 0.17625835 3.70225849 0.69719773 5.37890625 2.40234375 C6.62115486 3.90649092 7.81376056 5.45129851 9 7 C8.401875 6.649375 7.80375 6.29875 7.1875 5.9375 C4.89186786 4.66695302 4.89186786 4.66695302 2 6 C1.34 6.66 0.68 7.32 0 8 C0 7.01 0 6.02 0 5 C-0.66 5 -1.32 5 -2 5 C-1.34 3.35 -0.68 1.7 0 0 Z " fill="#D2BD9A" transform="translate(177,174)"/>
<path d="M0 0 C0.33 0.99 0.66 1.98 1 3 C-2.4352048 5.29013653 -3.985331 5.17842973 -8 5 C-8.33 4.01 -8.66 3.02 -9 2 C-5.86501708 0.14223235 -3.62528568 -0.20140476 0 0 Z " fill="#8A8A8A" transform="translate(88,64)"/>
<path d="M0 0 C-1.5766668 3.1533336 -4.71600376 3.58090551 -7.875 4.6875 C-8.51308594 4.92533203 -9.15117188 5.16316406 -9.80859375 5.40820312 C-14.62847836 7.12384055 -14.62847836 7.12384055 -18 6 C-15.94326547 4.98819502 -13.87934652 3.99098523 -11.8125 3 C-10.66394531 2.443125 -9.51539063 1.88625 -8.33203125 1.3125 C-5.20909481 0.08236325 -3.29713518 -0.29804612 0 0 Z " fill="#0E284E" transform="translate(73,42)"/>
<path d="M0 0 C5.28 0 10.56 0 16 0 C15.34 1.32 14.68 2.64 14 4 C12.22825181 3.91276622 10.45752623 3.80458345 8.6875 3.6875 C7.70136719 3.62949219 6.71523437 3.57148437 5.69921875 3.51171875 C3 3 3 3 0 0 Z " fill="#BEBFC0" transform="translate(117,40)"/>
<path d="M0 0 C4.30983135 2.52645286 5.29942025 5.49346365 7 10 C7.66 9.34 8.32 8.68 9 8 C9.33 9.32 9.66 10.64 10 12 C8.35 12.33 6.7 12.66 5 13 C4.15930585 11.39967863 3.32768495 9.79458829 2.5 8.1875 C1.80390625 6.84751953 1.80390625 6.84751953 1.09375 5.48046875 C0 3 0 3 0 0 Z " fill="#AC8853" transform="translate(69,175)"/>
<path d="M0 0 C0.99 0.33 1.98 0.66 3 1 C-5.07744875 8.85193622 -5.07744875 8.85193622 -11 9 C-8.65839543 6.47106706 -6.17847268 4.26645809 -3.4375 2.1875 C-2.85871094 1.74792969 -2.27992188 1.30835938 -1.68359375 0.85546875 C-1.12800781 0.57316406 -0.57242188 0.29085937 0 0 Z " fill="#9A7E40" transform="translate(154,232)"/>
<path d="M0 0 C3.91211733 1.15585285 6.8745041 2.35534962 10 5 C9.67 5.99 9.34 6.98 9 8 C7.67968405 7.43457996 6.3688699 6.84693528 5.0625 6.25 C3.96615234 5.76273438 3.96615234 5.76273438 2.84765625 5.265625 C1 4 1 4 0.24609375 1.859375 C0.16488281 1.24578125 0.08367187 0.6321875 0 0 Z " fill="#CFB17A" transform="translate(67,136)"/>
<path d="M0 0 C1.3303125 0.39638672 1.3303125 0.39638672 2.6875 0.80078125 C5 1.6875 5 1.6875 7 3.6875 C3.94736336 4.66870464 2.05263664 4.66870464 -1 3.6875 C-1 2.6975 -1 1.7075 -1 0.6875 C-2.65 1.0175 -4.3 1.3475 -6 1.6875 C-6.33 1.0275 -6.66 0.3675 -7 -0.3125 C-4.22057978 -1.70221011 -2.92961386 -0.89847169 0 0 Z " fill="#4E7799" transform="translate(115,96.3125)"/>
<path d="M0 0 C3.7602985 0.58107632 6.53035032 1.65199496 9.8125 3.5625 C10.60269531 4.01753906 11.39289063 4.47257812 12.20703125 4.94140625 C12.79871094 5.29074219 13.39039062 5.64007813 14 6 C13.01 6.66 12.02 7.32 11 8 C11 7.34 11 6.68 11 6 C10.01 6.33 9.02 6.66 8 7 C5.5 5.6875 5.5 5.6875 3 4 C2.01 3.34 1.02 2.68 0 2 C0 1.34 0 0.68 0 0 Z " fill="#5F819C" transform="translate(70,75)"/>
<path d="M0 0 C0.66 0 1.32 0 2 0 C0.68775452 3.93673644 -0.91910327 6.22719294 -4 9 C-4.66 7.35 -5.32 5.7 -6 4 C-5.01 3.67 -4.02 3.34 -3 3 C-2.484375 2.484375 -1.96875 1.96875 -1.4375 1.4375 C-0.963125 0.963125 -0.48875 0.48875 0 0 Z " fill="#4076A4" transform="translate(181,127)"/>
<path d="M0 0 C0.9727838 3.43378164 0.85024205 5.51400758 0 9 C-0.185625 9.928125 -0.37125 10.85625 -0.5625 11.8125 C-0.706875 12.534375 -0.85125 13.25625 -1 14 C-1.66 14 -2.32 14 -3 14 C-4.37095624 10.30962722 -3.60010967 8.29116165 -2.0625 4.75 C-1.68222656 3.85796875 -1.30195313 2.9659375 -0.91015625 2.046875 C-0.60980469 1.37140625 -0.30945313 0.6959375 0 0 Z " fill="#D1D2D1" transform="translate(213,161)"/>
<path d="M0 0 C3.3 0.99 6.6 1.98 10 3 C9.34 3.66 8.68 4.32 8 5 C7.34 4.67 6.68 4.34 6 4 C5.67 4.99 5.34 5.98 5 7 C3.29115995 5.37660195 1.62553283 3.70680947 0 2 C0 1.34 0 0.68 0 0 Z " fill="#2C4868" transform="translate(62,117)"/>
<path d="M0 0 C5.94 1.485 5.94 1.485 12 3 C12 3.33 12 3.66 12 4 C10.22950311 4.05410687 8.45853151 4.09284119 6.6875 4.125 C5.20830078 4.15980469 5.20830078 4.15980469 3.69921875 4.1953125 C1 4 1 4 -2 2 C-1.34 2 -0.68 2 0 2 C0 1.34 0 0.68 0 0 Z " fill="#D6DEE4" transform="translate(93,123)"/>
<path d="M0 0 C3.375 0.25 3.375 0.25 7 1 C8.4375 3.0625 8.4375 3.0625 9 5 C8.34 5.66 7.68 6.32 7 7 C5.83040013 6.02433888 4.66438823 5.044375 3.5 4.0625 C2.8503125 3.51722656 2.200625 2.97195312 1.53125 2.41015625 C1.0259375 1.94480469 0.520625 1.47945312 0 1 C0 0.67 0 0.34 0 0 Z " fill="#4B546C" transform="translate(89,248)"/>
<path d="M0 0 C2 1 2 1 3 3 C-0.33333333 4.33333333 -3.66666667 5.66666667 -7 7 C-7 6.01 -7 5.02 -7 4 C-1.7265625 0.77734375 -1.7265625 0.77734375 0 0 Z " fill="#9C9E9F" transform="translate(143,251)"/>
<path d="M0 0 C1.8125 0.125 1.8125 0.125 4 1 C5.625 3.8125 5.625 3.8125 7 7 C7.5878125 8.175625 7.5878125 8.175625 8.1875 9.375 C8.455625 9.91125 8.72375 10.4475 9 11 C2.21917808 5.57534247 2.21917808 5.57534247 0 2 C0 1.34 0 0.68 0 0 Z " fill="#0D2349" transform="translate(79,210)"/>
<path d="M0 0 C0.66 0 1.32 0 2 0 C2.86627399 1.59766103 3.71766465 3.20339944 4.5625 4.8125 C5.27599609 6.15248047 5.27599609 6.15248047 6.00390625 7.51953125 C7 10 7 10 6 13 C2.57068046 9.2440786 1.43570917 4.76533255 0 0 Z " fill="#D7B76F" transform="translate(81,161)"/>
<path d="M0 0 C2.48046875 0.6796875 2.48046875 0.6796875 5.1875 1.875 C6.08855469 2.26429687 6.98960937 2.65359375 7.91796875 3.0546875 C8.94857422 3.52261719 8.94857422 3.52261719 10 4 C10 4.33 10 4.66 10 5 C4.73946963 5.31563182 1.55426184 4.66590937 -3 2 C-2.01 1.34 -1.02 0.68 0 0 Z " fill="#B7B6B6" transform="translate(197,69)"/>
<path d="M0 0 C0.99 0 1.98 0 3 0 C2.01 3.3 1.02 6.6 0 10 C-2.08120514 5.83758971 -2.24191133 5.17733811 -1 1 C-0.67 0.67 -0.34 0.34 0 0 Z " fill="#3D5978" transform="translate(121,193)"/>
<path d="M0 0 C2.475 0.495 2.475 0.495 5 1 C5.66 3.31 6.32 5.62 7 8 C5.68 8.33 4.36 8.66 3 9 C2.690625 7.88625 2.38125 6.7725 2.0625 5.625 C1.17673517 2.2054845 1.17673517 2.2054845 0 0 Z " fill="#DCC288" transform="translate(73,142)"/>
<path d="M0 0 C0.99 0.33 1.98 0.66 3 1 C4.23076923 7.4 4.23076923 7.4 3.0625 10.4375 C2.711875 10.953125 2.36125 11.46875 2 12 C0.70756464 7.8803623 -0.26252625 4.33168317 0 0 Z " fill="#626C7F" transform="translate(26,135)"/>
<path d="M0 0 C0.66 1.32 1.32 2.64 2 4 C0.41105928 5.58894072 -1.24801424 5.16998411 -3.4375 5.1875 C-4.64212891 5.20876953 -4.64212891 5.20876953 -5.87109375 5.23046875 C-8 5 -8 5 -10 3 C-6.7 3 -3.4 3 0 3 C0 2.01 0 1.02 0 0 Z " fill="#9AB1C5" transform="translate(365,214)"/>
<path d="M0 0 C5.63281599 -0.2396943 10.54538831 0.61470179 16 2 C16 2.33 16 2.66 16 3 C14.27119018 3.05449838 12.54187288 3.09301688 10.8125 3.125 C9.84957031 3.14820313 8.88664062 3.17140625 7.89453125 3.1953125 C4.87187222 2.9913544 2.73230015 2.26874632 0 1 C0 0.67 0 0.34 0 0 Z " fill="#0C3762" transform="translate(99,145)"/>
<path d="M0 0 C1.98 0.99 1.98 0.99 4 2 C4 4.64 4 7.28 4 10 C1 8 1 8 0.48828125 6.0546875 C0.32552083 4.03645833 0.16276042 2.01822917 0 0 Z " fill="#A0A5A9" transform="translate(121,247)"/>
<path d="M0 0 C-4.455 2.97 -4.455 2.97 -9 6 C-9.66 5.67 -10.32 5.34 -11 5 C-8.10998474 1.78887193 -4.47884754 -2.23942377 0 0 Z " fill="#856B36" transform="translate(147,241)"/>
<path d="M0 0 C0.99 0.33 1.98 0.66 3 1 C0.03 3.97 -2.94 6.94 -6 10 C-6.66 9.67 -7.32 9.34 -8 9 C-5.36 6.03 -2.72 3.06 0 0 Z " fill="#C8C8C9" transform="translate(171,229)"/>
<path d="M0 0 C0.66 1.32 1.32 2.64 2 4 C0.35 5.65 -1.3 7.3 -3 9 C-3.33 8.01 -3.66 7.02 -4 6 C-2.0625 2.8125 -2.0625 2.8125 0 0 Z " fill="#9A999A" transform="translate(197,197)"/>
<path d="M0 0 C0.33 0 0.66 0 1 0 C1.33 1.98 1.66 3.96 2 6 C2.33 6 2.66 6 3 6 C2.74438677 8.3431213 2.40729228 10.67843403 2 13 C1.01 13.495 1.01 13.495 0 14 C0 9.38 0 4.76 0 0 Z " fill="#828282" transform="translate(245,76)"/>
<path d="M0 0 C0 0.99 0 1.98 0 3 C-1.98 3.66 -3.96 4.32 -6 5 C-6.33 4.01 -6.66 3.02 -7 2 C-4 0 -4 0 0 0 Z " fill="#CACACB" transform="translate(180,248)"/>
<path d="M0 0 C0.66 0 1.32 0 2 0 C3.38938077 1.96147874 4.7260411 3.96166576 6 6 C4.68 6.33 3.36 6.66 2 7 C1.34 4.69 0.68 2.38 0 0 Z M-3 6 C-1.68 6.33 -0.36 6.66 1 7 C-0.32 7 -1.64 7 -3 7 C-3 6.67 -3 6.34 -3 6 Z " fill="#DFE1E6" transform="translate(90,210)"/>
<path d="M0 0 C1.32 0.33 2.64 0.66 4 1 C4 4.96 4 8.92 4 13 C3.67 13 3.34 13 3 13 C2.8046875 10.98177083 2.609375 8.96354167 2.4140625 6.9453125 C2.13625251 4.77331755 2.13625251 4.77331755 0 3 C0 2.01 0 1.02 0 0 Z " fill="#0F213D" transform="translate(40,106)"/>
<path d="M0 0 C3.99455527 0.61454696 6.74466336 2.70646737 10 5 C9.34 5.66 8.68 6.32 8 7 C6.66144944 6.21718695 5.32926356 5.42348123 4 4.625 C3.2575 4.18414062 2.515 3.74328125 1.75 3.2890625 C1.1725 2.86367188 0.595 2.43828125 0 2 C0 1.34 0 0.68 0 0 Z " fill="#1D426A" transform="translate(45,59)"/>
<path d="M0 0 C0 3 0 3 -1 5 C-1.66 5 -2.32 5 -3 5 C-3 5.66 -3 6.32 -3 7 C-5 6 -5 6 -7 3 C-4.69 2.01 -2.38 1.02 0 0 Z " fill="#4F7BA4" transform="translate(139,136)"/>
<path d="M0 0 C3.08089673 2.77280706 4.68775452 5.06326356 6 9 C4.125 8.6875 4.125 8.6875 2 8 C-0.1519437 4.77208445 -0.20086443 3.71599191 0 0 Z " fill="#5B7C9F" transform="translate(159,105)"/>
<path d="M0 0 C4.67692308 1.47692308 4.67692308 1.47692308 6.3125 4.125 C6.539375 4.74375 6.76625 5.3625 7 6 C4.03824877 5.38722388 2.61941217 4.74627478 0 3 C0 2.01 0 1.02 0 0 Z " fill="#0D2446" transform="translate(29,99)"/>
<path d="M0 0 C3.7910119 1.44950455 7.3874638 3.15172566 11 5 C8.5332355 5.88336837 7.36140628 6.1312406 4.859375 5.22265625 C4.16328125 4.83980469 3.4671875 4.45695312 2.75 4.0625 C2.04359375 3.68222656 1.3371875 3.30195312 0.609375 2.91015625 C0.07828125 2.60980469 -0.4528125 2.30945313 -1 2 C-0.67 1.34 -0.34 0.68 0 0 Z " fill="#6C869E" transform="translate(84,82)"/>
<path d="M0 0 C0.66 0.99 1.32 1.98 2 3 C-2.75 7 -2.75 7 -5 7 C-3.70700306 4.11562221 -2.34058637 2.12780579 0 0 Z " fill="#D5BB85" transform="translate(164,195)"/>
<path d="M0 0 C1 3 1 3 0.25 5.125 C-1 7 -1 7 -4 8 C-4.33 7.01 -4.66 6.02 -5 5 C-3.5625 2.8125 -3.5625 2.8125 -2 1 C-1.67 1.33 -1.34 1.66 -1 2 C-0.67 1.34 -0.34 0.68 0 0 Z " fill="#DADADA" transform="translate(231,176)"/>
<path d="M0 0 C2.64 0.33 5.28 0.66 8 1 C7.34 1.66 6.68 2.32 6 3 C6.99 3.66 7.98 4.32 9 5 C7.35 5.33 5.7 5.66 4 6 C2.68 4.02 1.36 2.04 0 0 Z " fill="#E5E6EA" transform="translate(85,135)"/>
<path d="M0 0 C5.75 0.875 5.75 0.875 8 2 C8 2.66 8 3.32 8 4 C8.66 4.33 9.32 4.66 10 5 C6.44219804 4.39009109 3.3171411 3.4216319 0 2 C0 1.34 0 0.68 0 0 Z " fill="#285D95" transform="translate(153,111)"/>
<path d="M0 0 C0.66 0.66 1.32 1.32 2 2 C0.35 3.65 -1.3 5.3 -3 7 C-3.66 6.67 -4.32 6.34 -5 6 C-2.25 1.125 -2.25 1.125 0 0 Z " fill="#B6B5B5" transform="translate(159,262)"/>
<path d="M0 0 C0.66 0 1.32 0 2 0 C2 2.31 2 4.62 2 7 C1.01 7 0.02 7 -1 7 C-0.67 4.69 -0.34 2.38 0 0 Z " fill="#8B8C8D" transform="translate(126,260)"/>
<path d="M0 0 C-0.66 1.32 -1.32 2.64 -2 4 C-3.32 3.34 -4.64 2.68 -6 2 C-6 1.34 -6 0.68 -6 0 C-3 -1 -3 -1 0 0 Z " fill="#BBA583" transform="translate(81,188)"/>
<path d="M0 0 C0 0.99 0 1.98 0 3 C-4.34285714 7 -4.34285714 7 -7 7 C-3.86206897 0 -3.86206897 0 0 0 Z " fill="#4C769C" transform="translate(168,146)"/>
<path d="M0 0 C0.66 0.66 1.32 1.32 2 2 C1.63910592 5.48864279 -0.1410422 8.09032693 -2 11 C-2.66 10.67 -3.32 10.34 -4 10 C-3.525625 9.278125 -3.05125 8.55625 -2.5625 7.8125 C-1.05847097 5.10524774 -0.43400818 3.03805725 0 0 Z " fill="#5C7A9B" transform="translate(452,110)"/>
<path d="M0 0 C0.66 0.33 1.32 0.66 2 1 C-0.31 3.64 -2.62 6.28 -5 9 C-5.66 8.67 -6.32 8.34 -7 8 C-4.69 5.36 -2.38 2.72 0 0 Z " fill="#C1C2C3" transform="translate(166,233)"/>
<path d="M0 0 C2.31 1.65 4.62 3.3 7 5 C4.53721199 6.231394 2.7204945 6.07159196 0 6 C0 4.02 0 2.04 0 0 Z " fill="#DDBA70" transform="translate(125,218)"/>
<path d="M0 0 C0.66 0 1.32 0 2 0 C5 5.625 5 5.625 5 9 C2.5 6.75 2.5 6.75 0 4 C0 2.68 0 1.36 0 0 Z " fill="#5F6B7D" transform="translate(84,212)"/>
<path d="M0 0 C0.66 1.32 1.32 2.64 2 4 C1.01 4.495 1.01 4.495 0 5 C-0.65213292 7.02463255 -0.65213292 7.02463255 -1 9 C-1.66 8.67 -2.32 8.34 -3 8 C-1.125 2.25 -1.125 2.25 0 0 Z " fill="#D4BD91" transform="translate(174,179)"/>
<path d="M0 0 C0.66 0 1.32 0 2 0 C0.8141763 3.37503669 -0.27573689 5.64722731 -3 8 C-3.33 7.01 -3.66 6.02 -4 5 C-2.1875 2.3125 -2.1875 2.3125 0 0 Z " fill="#1C4973" transform="translate(118,180)"/>
<path d="M0 0 C0.99 0.33 1.98 0.66 3 1 C0.36 2.98 -2.28 4.96 -5 7 C-4.67 5.68 -4.34 4.36 -4 3 C-2.68 2.67 -1.36 2.34 0 2 C0 1.34 0 0.68 0 0 Z " fill="#6889A6" transform="translate(148,160)"/>
<path d="M0 0 C0.89694794 3.58779175 1.08304117 6.34618837 1 10 C-0.32 10.33 -1.64 10.66 -3 11 C-2.01 7.37 -1.02 3.74 0 0 Z " fill="#D1D2D2" transform="translate(217,150)"/>
<path d="M0 0 C3.63 0 7.26 0 11 0 C11 0.33 11 0.66 11 1 C10.0925 1.144375 9.185 1.28875 8.25 1.4375 C5.78523044 1.86409473 3.41152893 2.35074221 1 3 C0.67 2.01 0.34 1.02 0 0 Z " fill="#476689" transform="translate(90,140)"/>
<path d="M0 0 C4.95 0.99 4.95 0.99 10 2 C9.34 2.66 8.68 3.32 8 4 C5.0574037 3.69347955 2.65457692 3.32728846 0 2 C0 1.34 0 0.68 0 0 Z " fill="#21456C" transform="translate(73,121)"/>
<path d="M0 0 C1.65 0.99 3.3 1.98 5 3 C4.34 4.65 3.68 6.3 3 8 C1.0549 5.08235 0.54723683 3.37462715 0 0 Z " fill="#162A44" transform="translate(28,75)"/>
<path d="M0 0 C0 0.66 0 1.32 0 2 C0.66 2.33 1.32 2.66 2 3 C-5.75 2.25 -5.75 2.25 -8 0 C-4.71023192 -1.09658936 -3.28696233 -0.79953138 0 0 Z " fill="#B7B7B8" transform="translate(191,48)"/>
<path d="M0 0 C1.98 1.65 3.96 3.3 6 5 C5.01 5.33 4.02 5.66 3 6 C1.68 4.68 0.36 3.36 -1 2 C-0.67 1.34 -0.34 0.68 0 0 Z " fill="#061839" transform="translate(89,220)"/>
<path d="M0 0 C0.66 0.33 1.32 0.66 2 1 C1 4 1 4 -1.0625 5.1875 C-1.701875 5.455625 -2.34125 5.72375 -3 6 C-3.66 5.34 -4.32 4.68 -5 4 C-3.35 2.68 -1.7 1.36 0 0 Z " fill="#C9AF77" transform="translate(144,215)"/>
<path d="M0 0 C1.65 0.99 3.3 1.98 5 3 C3.625 4.5 3.625 4.5 2 6 C1.34 6 0.68 6 0 6 C0 4.02 0 2.04 0 0 Z " fill="#996B23" transform="translate(59,135)"/>
<path d="M0 0 C2.475 0.99 2.475 0.99 5 2 C4.01 2.495 4.01 2.495 3 3 C2.34 2.67 1.68 2.34 1 2 C1 4.31 1 6.62 1 9 C0.67 9 0.34 9 0 9 C-0.87890625 2.84765625 -0.87890625 2.84765625 -1 1 C-0.67 0.67 -0.34 0.34 0 0 Z " fill="#D0C5B8" transform="translate(54,128)"/>
<path d="M0 0 C1.9375 0.3125 1.9375 0.3125 4 1 C4.33 1.99 4.66 2.98 5 4 C3.35 4.33 1.7 4.66 0 5 C-0.33 4.01 -0.66 3.02 -1 2 C-0.67 1.34 -0.34 0.68 0 0 Z " fill="#898C8F" transform="translate(132,255)"/>
<path d="M0 0 C0.66 0.33 1.32 0.66 2 1 C0.37660195 2.70884005 -1.29319053 4.37446717 -3 6 C-3.66 6 -4.32 6 -5 6 C-3.63016497 2.83884224 -3.0109362 2.0072908 0 0 Z " fill="#B0B1B3" transform="translate(153,244)"/>
<path d="M0 0 C0.99 0.33 1.98 0.66 3 1 C-1.625 6.875 -1.625 6.875 -5 8 C-5 7.34 -5 6.68 -5 6 C-4.360625 5.525625 -3.72125 5.05125 -3.0625 4.5625 C-0.71627037 3.0908635 -0.71627037 3.0908635 0 0 Z " fill="#114170" transform="translate(134,143)"/>
<path d="M0 0 C0.33 0 0.66 0 1 0 C1 1.98 1 3.96 1 6 C1.66 6 2.32 6 3 6 C2.67 6.99 2.34 7.98 2 9 C1.01 8.67 0.02 8.34 -1 8 C-0.67 5.36 -0.34 2.72 0 0 Z " fill="#CACACA" transform="translate(222,132)"/>
<path d="M0 0 C0 0.66 0 1.32 0 2 C-1.98 2.33 -3.96 2.66 -6 3 C-6 2.01 -6 1.02 -6 0 C-2.25 -1.125 -2.25 -1.125 0 0 Z " fill="#8F8F8F" transform="translate(96,63)"/>
<path d="M0 0 C2.31 0.66 4.62 1.32 7 2 C7 2.66 7 3.32 7 4 C2.545 3.01 2.545 3.01 -2 2 C-1.34 1.34 -0.68 0.68 0 0 Z " fill="#B8B7B8" transform="translate(196,50)"/>
</svg>
